<svg xmlns="http://www.w3.org/2000/svg" viewBox="0 0 586 503" preserveAspectRatio="xMidYMid meet"><path fill="#a66750" d="M377.798-.35a685 685 0 0 0 7.447-.082 654 654 0 0 1 9.113-.081c1.696-.01 3.392-.044 5.088-.08 5.6.016 9.396.193 13.556 4.158 2.531 3.64 2.29 7.495 1.654 11.716C412.741 23.042 408.442 29.474 404 36l-1.809 2.734c-4.656 6.45-10.197 10.326-16.921 14.356l-1.672 1.002c-1.478.84-3.012 1.578-4.547 2.306L377 58c-.27 2.634-.27 2.634.375 5.688 6.196 51.901-23.055 128.029-43.582 175.079-.385.884-.77 1.768-1.168 2.678l-1.086 2.368c-.762 2.204-.762 2.204.26 4.321a383 383 0 0 0 4.576 6.929c7.071 11.175 9.746 22.021 6.965 35.023-4.065 12.565-12.852 19.95-24.152 26.102-19.128 9.037-47.125 10.583-67.269 3.548-15.18-5.823-26.663-13.318-33.728-28.47-3.117-8.686-1.726-18.9 1.399-27.332 2.67-5.555 6.338-11.365 11.09-15.34L232 247c-.107-1.845-.107-1.845-.984-3.79l-.92-2.434L229 238q-1.203-3.26-2.39-6.523l-.675-1.84c-43.762-119.626-43.762-119.626-41.779-158.54.261-5.673.261-5.673-1.156-11.097-3.355-3.453-7.984-5.232-12.307-7.187-11.193-5.378-19.695-19.739-23.916-30.989-1.564-5.683-1.946-10.485.723-15.824 6.525-5.22 15.253-4.225 23.18-4.047l3.66.062q3.82.066 7.64.152c3.236.071 6.472.125 9.709.174q3.775.061 7.552.14c1.764.034 3.529.061 5.293.089 14.385.346 27.863 3.482 39.564 12.196 2.824 1.832 4.921 2.374 8.279 1.894l2.626-.598c6.062-1.195 11.79-1.22 17.946-1.046q3.378.052 6.756.101c3.503.062 7.004.132 10.506.226 3.413.085 6.825.131 10.238.173l3.151.112c6.36.045 9.924-.898 14.726-5.155C333.771-3.117 358.88-.257 377.798-.35m7.16 9.367c-4.78.017-9.56.07-14.34.136q-2.988.034-5.974.043c-16.65.053-32.937 1.345-45.581 13.492-2.677 3-3.285 4.441-3.063 8.375.787 5.962 3.593 9.941 8 13.937 3.523 2.18 7.083 3.67 11 5l2.145.742c13.918 3.886 29.29 1.54 41.844-5.273 4.65-2.68 8.581-5.353 12.011-9.469l1.633-1.957c9-10.826 9-10.826 12.367-24.043-2.577-1.289-4.335-1.103-7.227-1.074l-1.697.014q-1.937.016-3.872.039c-2.415.023-4.83.031-7.246.038M155 13c.817 8.477 6.106 15.388 11 22l1.586 2.258C175.28 47.218 188.853 52.976 201 55c12.524.76 25.679-.004 36-8 4.423-4.853 7.544-9.16 7.387-15.848-.753-4.186-3.131-6.564-6.387-9.152-3.85-2.357-7.798-4.356-12-6l-1.916-.814c-8.992-3.295-18.639-2.756-28.084-2.873q-2.666-.05-5.332-.104c-5.222-.099-10.445-.16-15.668-.209l-2.641-.028q-3.774-.034-7.546-.054l-2.306-.022c-3.88-.084-3.88-.084-7.507 1.104m99 14c-.081 1.603-.14 3.208-.187 4.813-.688 8.119-3.987 15.973-10 21.625C233.026 61.41 217.407 65.418 204 64l-2.762-.691c-3.644-.886-3.644-.886-7.238-.309-1.579 6.222-.107 12.784 1 19 4.344-1.55 7.991-3.758 11.875-6.187C238.113 56.796 275.059 49.503 311 58c19.427 4.937 36.74 13.273 53.52 24.117 1.336.968 1.336.968 2.48.883 1.014-4.6 1.153-9.053 1.125-13.75l.012-2.035c.04-3.732.04-3.732-1.137-7.215-1.74-.015-1.74-.015-3.812.375-15.37 1.988-32.869.013-45.829-9.266C312.108 46.414 308 40.066 307 33l.125-2.176c.067-2.37.067-3.761-1.125-5.824-3.515-1.191-7.047-1.074-10.717-1.022-2.581.025-5.155-.028-7.736-.083C269.969 22.422 269.969 22.422 254 27m4.472 45.364-1.98.519-2.276.589-2.341.653-2.495.682c-16.922 4.774-37.76 12.829-49.567 26.575-1.087 2.164-.756 3.16-.145 5.483l.603 2.365.702 2.579.708 2.718c.78 2.974 1.58 5.942 2.382 8.91l1.66 6.242C215.375 165.766 225.534 202.115 239 237l1.223-1.116c3.804-3.433 7.85-6.487 12.027-9.446l1.514-1.102c2.624-1.829 4.857-3.22 7.952-4.161 3.232-1.047 5.6-2.079 8.284-4.175 1.691-4.564 1.486-9.085 1.392-13.878q.017-2.145.048-4.288c.042-3.875.014-7.746-.028-11.62-.036-4.051-.016-8.102-.004-12.152.011-6.797-.023-13.593-.084-20.39-.07-7.87-.067-15.74-.028-23.61.037-7.564.023-15.127-.014-22.69q-.022-4.836.006-9.671c.018-3.79-.008-7.576-.069-11.364q-.023-2.093.002-4.185c.082-5.673.082-5.673-1.221-11.152-3.908-1.607-7.514-.214-11.528.364M292 72c-1.276 4.283-1.051 8.75-1.049 13.184q-.036 2.122-.08 4.246c-.071 3.862-.096 7.724-.108 11.586q-.016 3.62-.05 7.239-.114 12.628-.12 25.256c-.005 7.845-.097 15.686-.228 23.53-.109 6.732-.156 13.463-.155 20.197 0 4.022-.027 8.04-.116 12.063-1.138 15.626-1.138 15.626 3.498 29.795 3.815 3.085 7.861 4.414 12.606 5.426 3.666.972 6.081 3.677 8.615 6.353 3.836 3.872 3.836 3.872 8.187 7.125 3.844-8.868 7.184-17.836 10.25-27l.746-2.223c5.456-16.363 10.183-32.934 14.879-49.527l.549-1.935c3.848-13.57 7.609-27.16 11.084-40.83l.772-3.001c.23-.916.458-1.831.693-2.774l.605-2.403c.458-2.503.575-4.769.422-7.307-1.146-1.463-1.146-1.463-2.86-2.43l-1.861-1.21-2.029-1.235-2.085-1.318a407 407 0 0 0-4.212-2.61 210 210 0 0 1-4.918-3.119C331.55 80.643 314.888 73.873 299 72l-1.693-.487c-2.196-.414-3.308-.557-5.307.487m-36 172-3.16 1.285c-11.11 5.042-19.628 12.58-24.84 23.715-2.325 7.063-2.11 15.557.938 22.313 6.803 11.692 18.727 17.165 31.312 20.5 19.988 4.441 41.19 3.262 59.125-7.188C326.34 299.893 331.89 294.343 334 286c1.56-11.346-1.214-18.898-7.574-28.336-.47-.55-.941-1.098-1.426-1.664h-2v-2c-14.575-12.802-31.72-14.924-50.261-14.195-5.984.426-11.185 1.924-16.739 4.195"/><path fill="#60425f" d="M276.663 347.682q4.707.008 9.413.01c29.868.03 59.577.399 89.342 3.077q3.963.352 7.928.685A1319 1319 0 0 1 419 355l2.402.269c35.978 4.051 71.663 10.074 107.098 17.481l2.68.559c8.53 1.789 17.035 3.662 25.476 5.832l1.916.477c1.495.397 2.965.882 4.428 1.382 1.414 2.829 1.319 4.874 1 8-1.457 1.788-1.457 1.788-4 3-3.084-.115-6-.835-8.996-1.543l-2.686-.587a702 702 0 0 1-5.57-1.245 785 785 0 0 0-10.156-2.217q-3.726-.797-7.45-1.604C470.032 372.944 414.212 365.916 358 362c-1.265-.09-1.265-.09-2.556-.184-51.071-3.66-103.384-3.577-154.444.184l-2.645.191c-58.178 4.242-116.533 11.028-173.277 24.829l-2.11.51a364 364 0 0 0-9.782 2.503l-1.805.47c-1.588.415-3.17.847-4.753 1.28C4 392 4 392 1.685 390.674c-1.863-1.85-2.299-2.584-2.372-5.173.166-1.767.166-1.767.687-3.5 5.974-3.26 12.68-4.636 19.25-6.25l1.822-.451c49.401-12.183 99.979-19.093 150.616-23.487l2.704-.238c6.865-.6 13.733-1.112 20.608-1.574l1.938-.131c26.576-1.779 53.095-2.235 79.725-2.187"/><path fill="#1c3d5b" d="M510.797 420.227C518.218 425.85 521.423 434.049 523 443c.976 9.571-1.003 18.744-6 27h-2l-.902 1.809c-2.577 5.143-8.358 8.15-13.598 10.066-5.025 1.467-9.892 2.086-14.875.25C484 481 484 481 482 479c-2.02.664-2.02.664-4.187 1.875-4.41 2.071-6.969 2.83-11.813 2.125-4.696-1.737-8.917-3.968-12-8-3.297-8.194-3.452-18.214-.312-26.5A81 81 0 0 1 456 444l1.098-1.988c3.535-5.596 8.677-8.937 14.902-11.012 6.216-.556 10.643-.214 16 3h2l1-2a69 69 0 0 1 6.563-.125l1.865.027c1.524.024 3.048.06 4.572.098l-3.71 18.555-.656 3.296q-.607 3.015-1.244 6.025l-.554 2.632-.49 2.278c-.38 2.434-.404 4.754-.346 7.214 1.17-.28 2.336-.575 3.5-.875l1.969-.492L504 470v-2h2v-2h2c1.055-2.085 1.055-2.085 2-5l.793-2.02c3.265-8.753 3.002-15.151-.723-23.718L509 433l-.883-2.168c-1.41-2.312-2.64-2.807-5.117-3.832l-2-1.035-2-1.027-2-1.036c-8.667-3.91-21.431-3.254-30.25-.152A84 84 0 0 0 462 426l-1.785.91c-8.1 4.786-13.153 13.446-15.465 22.34-1.792 9.382-1.059 17.835 2.25 26.75l1.063 3.125L449 481h2v2h2l1.754 1.832c2.584 2.494 4.86 3.527 8.183 4.856l3.09 1.261c11.365 4.018 25.766 3.31 36.973-.949 3.918-1.936 7.11-3.903 9.875-7.312 3.55-2.82 7.763-1.988 12.125-1.688-1.323 6.313-4.92 10.503-10.125 14.188-13.905 8.696-30.43 9.466-46.344 7.351A50 50 0 0 1 461 500l-3.035-1.254C447.116 493.813 440.339 487.15 436 476c-1.91-5.538-2.352-10.47-2.312-16.312l.012-2.549c.112-6.138.817-11.472 3.3-17.139l.773-2.02c4.515-10.5 13.75-18.587 23.98-23.23 16.57-6.095 34.705-4.311 49.044 5.477M468 446c-3.407 5.67-4.781 12.431-4 19 .95 3.46 2.016 6.185 4.813 8.5 4.16.95 7.156.09 10.812-2 5.738-6.04 7.682-14.106 7.602-22.242-.339-3.374-1.384-5.423-3.227-8.258-6.727-3.364-11.595-.204-16 5"/><path fill="#68455c" d="M8.085 422.784c3.753-.355 7.407-.258 10.915 1.216 2.733 2.304 4.582 5.312 6.145 8.503 1.845 3.569 4.04 6.79 6.355 10.067q1.125 1.635 2.246 3.274 1.711 2.494 3.43 4.983 1.698 2.461 3.387 4.93l1.05 1.513C44 460.773 44 460.773 44 463c3.42-3.006 5.79-6.097 8.191-9.973 3.758-5.983 7.692-11.822 11.684-17.652l2.047-3.004c5.654-8.276 5.654-8.276 9.174-9.06 4.022-.554 7.013-.61 10.904.689 2.405 5.385 1.944 11.034 1.824 16.844q.01 2.59.034 5.179c.016 3.627-.018 7.249-.088 10.875-.085 4.665-.05 9.319.023 13.983.043 3.568.024 7.133-.014 10.701q-.018 2.58.023 5.158c.113 9.616.113 9.616-1.802 14.26-3.607 1.785-6.14 2.12-10.068 1.344C73 501 73 501 71.806 498.76c-.434-3.37-.423-6.627-.294-10.01a421 421 0 0 0-.012-3.767c-.01-3.316.06-6.627.144-9.942.072-3.378.071-6.756.077-10.135.02-6.637.124-13.27.279-19.906l-.974 1.48a6010 6010 0 0 1-10.025 15.183q-1.875 2.835-3.742 5.674c-1.785 2.715-3.58 5.424-5.376 8.132l-1.692 2.585-1.577 2.366-1.386 2.1L46 484h-2a97 97 0 0 1-4.105-5.957l-1.22-1.872c-1.294-1.99-2.578-3.987-3.862-5.983l-2.542-3.913C27.47 458.878 22.731 451.443 18 444l.043 2.164q.185 10.065.188 20.132c.002 3.451.027 6.9.102 10.351.071 3.327.085 6.65.058 9.979q0 1.91.063 3.818c.118 3.785.216 7.113-1.454 10.556-3.386 1.699-5.507 1.884-9.266 1.472C5 501 5 501 3.837 497.962c-.658-4.58-.56-9.19-.501-13.806q-.02-2.59-.05-5.179a529 529 0 0 1 .04-10.875c.057-4.665-.003-9.32-.098-13.983a448 448 0 0 1-.024-10.701q.008-2.58-.051-5.158c-.25-13.433-.25-13.433 4.932-15.476"/><path fill="#553b5e" d="M167 424c4.64-1.763 9.309-1.73 14 0 3.347 2.733 5.145 5.719 7.188 9.5a3898 3898 0 0 0 3.457 5.77l1.686 2.92c2.467 4.153 5.241 8.066 8.044 11.998a565 565 0 0 1 2.71 3.855l1.127 1.594C206 461 206 461 206 463c3.763-3.426 6.37-7.312 9.133-11.54l1.448-2.187a2692 2692 0 0 0 4.544-6.898 4705 4705 0 0 1 4.565-6.92q1.42-2.146 2.832-4.3l1.295-1.962 1.134-1.727c1.955-2.733 2.9-3.43 6.243-4.253 3.993-.532 6.964-.552 10.806.787 2.398 5.391 1.944 11.031 1.824 16.844q.01 2.59.034 5.179c.016 3.627-.018 7.249-.088 10.875-.085 4.665-.05 9.319.023 13.983.043 3.568.024 7.133-.014 10.701q-.018 2.58.023 5.158c.113 9.616.113 9.616-1.802 14.26-3.607 1.785-6.14 2.12-10.068 1.344C235 501 235 501 233.806 498.76c-.434-3.37-.423-6.627-.294-10.01a421 421 0 0 0-.012-3.767c-.01-3.316.06-6.627.144-9.942.072-3.378.071-6.756.077-10.135.02-6.637.124-13.27.279-19.906l-.974 1.48a6010 6010 0 0 1-10.025 15.183q-1.875 2.835-3.742 5.674c-1.785 2.715-3.58 5.424-5.376 8.132l-1.692 2.585-1.577 2.366-1.386 2.1L208 484h-2a97 97 0 0 1-4.105-5.957l-1.22-1.872c-1.294-1.99-2.578-3.987-3.863-5.983l-2.54-3.913C189.47 458.878 184.73 451.443 180 444l.043 2.164q.185 10.065.188 20.132c.002 3.451.027 6.9.102 10.351.071 3.327.085 6.65.058 9.979q0 1.91.063 3.818c.118 3.785.216 7.113-1.454 10.556-3.386 1.699-5.507 1.884-9.266 1.472C167 501 167 501 165.837 497.962c-.658-4.58-.56-9.19-.501-13.806q-.02-2.59-.05-5.179a529 529 0 0 1 .04-10.875c.057-4.665-.003-9.32-.098-13.983a448 448 0 0 1-.024-10.701q.007-2.58-.051-5.158c-.18-9.64-.18-9.64 1.847-14.26"/><path fill="#9f6558" d="M339 94c2.517 1.259 2.545 1.973 3.438 4.578l.77 2.25.792 2.422.811 2.475c6.012 18.934 5.892 38.098-2.248 56.341C334.635 176.951 321.805 189.111 307 197h-3c-.86-1.446-.86-1.446-1.535-3.48l-.761-2.26-.767-2.447-.797-2.49c-6.124-19.732-6.153-39.918 3.4-58.467C311.28 113.793 324.247 100.64 339 94m-5 15a53 53 0 0 0-5.125 3.813l-1.491 1.247C316.988 123.007 307.152 136.879 306 151c-.526 8.463-.378 16.734 1.313 25.063l.356 1.822c.38 1.816.38 1.816 1.331 4.115 4.152 0 5.88-2.234 8.75-4.937l1.619-1.507c4.384-4.16 8.194-8.576 11.631-13.556l1.121-1.598c.972-1.419.972-1.419 1.879-3.402l-1-2-1.5 1.438c-3.933 2.458-7.903 3.093-12.469 2.16-3.344-1.198-4.845-2.354-7.031-5.223-1.627-4.078-1.272-8.238 0-12.375 1.847-2.722 4.042-4.52 7-6 5.207-.4 8.543-.039 13 3 2.246 3.562 3.39 6.846 4 11 4.953-5.944 3.513-17.678 3-25a97 97 0 0 0-1.375-7.937l-.382-1.81c-.408-1.83-.408-1.83-1.243-4.253zm0 44 1 2Z"/><path fill="#453361" d="M366.177 421.453c12.303-1.008 26.114 0 36.823 6.547 5.254 5.01 7.945 11.046 8.438 18.25-.17 6.26-2.678 12.11-7.223 16.457-2.706 1.994-5.01 3.225-8.215 4.293.972 4.219 2.799 7.695 4.969 11.441l1.73 3.018q.9 1.553 1.801 3.103 1.77 3.062 3.531 6.13l1.58 2.724c1.333 2.48 2.4 4.952 3.389 7.584-2.217.273-4.4.468-6.625.625l-1.871.254c-2.178.115-3.496.001-5.504-.879-2.567-3.035-4.23-6.458-6-10q-1.494-2.751-2.992-5.5-1.446-2.748-2.883-5.5l-1.508-2.848-1.422-2.714-1.28-2.442C382 470 382 470 382 468c-3.896-1.253-7.216-1.708-11 0-1.392 6.183-.278 12.65.376 18.9.222 2.294.367 4.582.507 6.881l.308 2.188c.11 2.002.11 2.002-1.191 5.031-4.763 1.72-8.296 1.998-13 0-2.508-5.357-2.424-11.003-2.57-16.844l-.21-5.179a435 435 0 0 1-.233-10.875c-.049-3.75-.215-7.464-.492-11.204-2.44-33.486-2.44-33.486 11.682-35.445m3.499 15.71c-1.723 5.891-1.71 11.768.017 17.656 1.136 2.313 1.136 2.313 3.364 3.304 6.568 1.356 15.028 1.17 20.926-2.285 2.693-2.173 4.74-4.08 5.29-7.572.205-4.052-.015-6.506-2.648-9.704-4.748-5.095-11.577-4.8-18.166-5.158-5.296.158-5.296.158-8.783 3.76"/><path fill="#ac6d54" d="M222 93c17.246 6.175 31.272 22.427 38.938 38.488 8.049 19.028 5.97 39.401-.375 58.575l-.585 1.861c-.6 1.674-.6 1.674-1.978 4.076-1.879.02-1.879.02-4-1l-2.156-1.023C234.815 184.157 220.318 168.124 215 149c-4.066-19.127-1.356-37.048 6-55zm5 15a63 63 0 0 0-1.5 4.125l-.781 2.32c-4.199 14.924-2.25 31.057 5.095 44.61 4.908 8.346 12.247 16.372 20.186 21.945h3c5.44-12.47 4.741-29.675.191-42.215C247.693 125.932 239.228 116.17 228 108z"/><path fill="#4a355e" d="M289.318 419.127c5.169-1.126 9.932-1.11 15.182-.627l3.25.271c3.177.346 6.269.838 9.406 1.448l2.984.57c2.796.758 4.651 1.33 6.86 3.211 1.235 3.896 1.29 7.111 0 11-2.989.915-4.039.837-7 .3a663 663 0 0 0-4.39-.45l-2.298-.277c-6.164-.694-12.275-1.175-18.312.427-3.118 3.374-3.593 6.492-3.687 11 .228 4.399.79 7.592 3.687 11 5.708 1.769 11.566.98 17.388.15 6.45-.83 6.45-.83 9.612-.15 1.698 3.123 1.74 5.062 1.318 8.575L322 468c-3.893.838-7.651.13-11.552-.427-5.207-.696-10.37-1.147-15.448.427-3.608 4.245-3.734 8.769-3.621 14.153.63 3.448 1.232 5.262 3.621 7.847 6.78 1.799 13.718.98 20.61.15l2.23-.221c2.161-.203 2.161-.203 4.282-.614 1.94-.215 1.94-.215 4.878.685 1.29 3.889 1.235 7.104 0 11-2.926 2.492-6.125 3.072-9.844 3.781l-3.039.591c-3.206.516-6.381.858-9.617 1.128l-3.183.293c-6.261.317-11.77-.144-17.18-3.51-10.518-11.237-7.979-34.826-7.683-48.998 1.099-30.595 1.099-30.595 12.864-35.158"/><path fill="#19314b" d="M466 415c-.375 2-.375 2-1 4h-2l1 3h-2l-.625 2.063c-1.457 3.112-2.565 4.076-5.187 6.187-8.056 6.771-11.498 16.448-12.473 26.766-.202 6.834.915 12.598 3.285 18.984l1.063 3.125L449 481h2v2h2l1.754 1.832c2.584 2.494 4.86 3.527 8.183 4.856l3.09 1.261c11.365 4.018 25.766 3.31 36.973-.949 3.918-1.936 7.11-3.903 9.875-7.312 3.55-2.82 7.763-1.988 12.125-1.688-1.323 6.313-4.92 10.503-10.125 14.188-13.905 8.696-30.43 9.466-46.344 7.351A50 50 0 0 1 461 500l-3.035-1.254C447.116 493.813 440.339 487.15 436 476c-1.91-5.538-2.352-10.47-2.312-16.312l.012-2.549c.112-6.138.817-11.472 3.3-17.139l.773-2.02c4.095-9.522 12.234-17.086 21.227-21.98 2.672-.89 4.262-1.094 7-1"/><path fill="#3a2e61" d="M549.058 422.458c3.881-.731 6.44-.29 9.942 1.542 1.496 4.069 1.002 7.992.55 12.223-.23 2.219-.368 4.426-.48 6.654a449 449 0 0 1-1.393 18.925c-1.855 14.436-1.855 14.436 1.323 28.198 5.6 2.578 11.538 1.778 17.44.717 6.538-1.145 6.538-1.145 9.56-.717 1.543 2.984 1.416 4.944 1.01 8.258C586 501 586 501 584.395 502.518c-2.37 1.092-4.593 1.715-7.145 2.263l-2.698.591c-2.851.517-5.667.858-8.552 1.128l-2.857.293c-5.688.32-10.594-.147-15.33-3.51-7.925-9.982-5.337-28.85-5.126-40.783l.047-5.578c.057-4.506.213-8.998.455-13.498q.135-2.582.22-5.165c.511-13.21.511-13.21 5.65-15.8"/><path fill="#614361" d="M122.949 422.374c3.988-.852 6.479-.344 10.051 1.626 2.217 5.44 1.828 11.042 1.727 16.844q.012 2.589.037 5.179c.02 3.626-.009 7.249-.07 10.875-.073 4.664-.03 9.32.047 13.983.047 3.568.032 7.133-.001 10.701q-.014 2.58.032 5.158c.131 9.589.131 9.589-1.772 14.26-3.572 1.97-6.063 2.478-10.051 1.626C120 501 120 501 118.755 497.946c-.693-4.574-.562-9.178-.482-13.79q-.012-2.589-.037-5.179c-.02-3.626.009-7.249.07-10.875.073-4.664.03-9.32-.047-13.983-.047-3.568-.032-7.133.001-10.701q.014-2.58-.032-5.158c-.18-13.184-.18-13.184 4.72-15.886"/><path fill="#9b6153" d="M329.25 135.25c2.802 1.783 4.049 2.942 5.75 5.75.728 4.787.555 9.433-1.062 14-3.163 3.264-6.42 4.88-10.997 5.098-4.696-.364-7.63-1.592-10.941-5.098-2.443-3.887-2.165-7.45-1.543-11.848.99-3.92 3.156-6.148 6.356-8.464 4.59-1.443 8.046-1.127 12.437.562"/><path fill="#172f4a" d="M458 442c2.05.528 2.05.528 4 2 .79 2.474.79 2.474 1.195 5.559l.48 3.357q.227 1.761.45 3.522c.305 2.291.623 4.58.945 6.87l.4 3.088c.494 2.428.86 3.8 2.53 5.604 2.174.318 2.174.318 4.563.25 2.43.176 2.43.176 4.437.75 1.31 2.291 1.447 4.42 1 7-2.64 2.64-4.507 2.952-8.187 3.313-5.526-.082-9.952-2.844-14.188-6.188-3.528-4.613-4.013-9.768-4-15.375v-1.98c.154-6.556 1.615-13.01 6.375-17.77"/><path fill="#a8674f" d="M247.813 136.117c2.943 2.392 4.967 4.134 5.46 8.055.309 7.828.309 7.828-2.273 11.328-3.156 3.12-6.591 4.37-11 4.5-3.792-.55-6.714-1.693-9.426-4.45-2.765-4.075-2.999-7.68-2.183-12.468 1.193-4.078 3.298-6.28 6.859-8.457 4.447-1.01 8.594-.954 12.563 1.492"/><path fill="#83585f" d="M314 266c.306 1.535.568 3.079.813 4.625.623 3.384 1.205 5.83 3.312 8.563 2.485 3.727 2.364 5.407 1.875 9.812-.844 2.602-1.54 3.642-3.687 5.313-3.287.977-6.043.66-9.313-.313-2.585-1.895-2.963-2.888-4-6-.84-6.086.03-10.176 3.559-15.203C312.01 266 312.01 266 314 266"/><path fill="#8b5c5e" d="M251 266c5.574 4.18 9.506 8.48 10.875 15.5.338 3.747-.134 7.14-1.875 10.5-2.242 2.05-3.709 2.96-6.777 3.055-2.659-.259-4.748-.701-6.907-2.309-2.2-2.918-1.776-5.728-1.68-9.262.447-3.05 1.437-4.56 3.34-6.902 2.027-3.133 2.411-6.952 3.024-10.582"/><path fill="#153655" d="m520.188 480.813 2.73.082L525 481c-.613 3.07-1.59 5.243-3.375 7.813l-1.273 1.894L519 492l-3-1 1-2h-10l5-5 1.344-1.656c2.314-1.878 3.91-1.646 6.843-1.531"/><path fill="#0f2844" d="M477 494c2.82-.32 5.664-.279 8.5-.312l2.457-.088 2.324-.026 2.158-.044L494 494c.37 1.998.37 1.998 0 4-2.187.46-2.187.46-5 .375l-2.812-.04L484 498v-2c-1.59-.434-1.59-.434-3.5-.562-1.17-.114-2.34-.251-3.5-.438z"/><path fill="#183957" d="M467 415c2 2 2 2 2.625 4.938L469 423c-2.53 1.497-5.162 2.278-8 3-.125-2.5-.125-2.5 0-5h2v-2h2c1.15-1.967 1.15-1.967 2-4"/><path fill="#193956" d="M482 467c2.25.188 2.25.188 4 1l-1.062 1.875L484 472l1 2c-1.25 1.688-1.25 1.688-3 3-3-1-3-1-3.937-2.75-.063-2.25-.063-2.25 1.625-5.062z"/><path fill="#112845" d="m452.75 422.25 2.25.75c-1.312 2-1.312 2-3 4h-3l1 4h-3c-.937-2.25-.937-2.25-1-5 2.101-3.071 2.962-4.094 6.75-3.75"/><path fill="#be9281" d="m326 102 2 1a1338 1338 0 0 1-7.375 7.563l-2.117 2.193-2.031 2.06-1.873 1.92L313 118l-2-1c10.043-11.494 10.043-11.494 15-15"/><path fill="#0c2741" d="M434 453h3c.363 2.406.363 2.406.313 5.5l-.012 3.094L437 464h-2l-1 2q-.118-3.25-.187-6.5l-.077-1.879c-.029-1.777-.029-1.777.264-4.621"/><path fill="#172f48" d="m445 427 2 2c-.125 3.063-.125 3.063-1 6-2 1.125-2 1.125-4 1-1-1.625-1-1.625-1-4 1.813-2.875 1.813-2.875 4-5"/><path fill="#294661" d="M469 432c1.5 1.125 1.5 1.125 2 3-1 1.625-1 1.625-3 3-3.187.688-3.187.688-6 1 1.086-2.863 2.037-4.029 4.5-5.937z"/><path fill="#213d5b" d="M491 432a67 67 0 0 1 6.5-.125l1.879.027c1.54.024 3.08.06 4.621.098l-2 4v-2c-2.52-.168-2.52-.168-5.5 0-3.094.125-3.094.125-5.5 0z"/><path fill="#142b44" d="M480 494a110 110 0 0 1 7-.312l2.023-.088c1.914-.026 1.914-.026 4.977.4.563 1.992.563 1.992 0 4-2 .438-2 .438-4 0v-3c-2.287-.33-2.287-.33-5-.125-1.666.07-3.333.119-5 .125z"/><path fill="#7a91a3" d="M515 481c2.285-.3 2.285-.3 5.063-.312l2.785-.051L525 481v3c-2.406.074-2.406.074-5.5-.312l-3.094-.364L514 483z"/><path fill="#2a455c" d="m477 472 .813 1.938c1.074 2.393 1.074 2.393 4.187 3.062v2c-1.937 1.313-1.937 1.313-4 2-1.065-3.196-1.074-5.657-1-9"/><path fill="#2f4a64" d="M465 448h2l-2 10c-2.15-3.224-2.383-4.267-2-8z"/><path fill="#122d49" d="M466 415c-.187 2-.187 2-1 4-2.562.438-2.562.438-5 0v-3c2.224-1.112 3.556-1.081 6-1"/><path fill="#b78b7d" d="m317 135 2 1-7 7-1-2c3.283-4.642 3.283-4.642 6-6"/><path fill="#304b66" d="m461 421 1.875.563c2.167.674 2.167.674 4.125-.563l-1 3c-2.562 1.188-2.562 1.188-5 2z"/><path fill="#123352" d="M515 458c.813 1.938.813 1.938 1 4-2.437.75-2.437.75-5 1v-3c2-1.187 2-1.187 4-2"/><path fill="#c49782" d="M233 136h2c-1.393 3.367-2.979 4.986-6 7 1.074-2.915 1.778-4.778 4-7"/><path fill="#0e2742" d="M447 425c3 3.48 3 3.48 3 6h-3c-.75-2.437-.75-2.437-1-5z"/><path fill="#34516c" d="m513 483 3 1v2c-3 .625-3 .625-6 1 1.313-2.062 1.313-2.062 3-4"/><path fill="#44556b" d="M518 488h3c-.812 2.063-.812 2.063-2 4l-3-1c.813-1.5.813-1.5 2-3"/><path fill="#22415d" d="m521 484 2 1-1 3c-3.062.188-3.062.188-6 0l1.938-.312L520 487z"/><path fill="#133555" d="M485 474c-1.312 1.563-1.312 1.563-3 3l-3-1v-2c2.56-.938 3.511-1.244 6 0"/><path fill="#2a4864" d="m502 470 3 1v3c-2.062-.312-2.062-.312-4-1z"/><path fill="#274560" d="M486 444c2.063.313 2.063.313 4 1l-1 3-3-1z"/><path fill="#0c2742" d="m458 442 3 1v2c-2 1.125-2 1.125-4 2 .313-2.562.313-2.562 1-5"/><path fill="#dea477" d="M150 4h2c-.812 1.938-.812 1.938-2 4l-3 1c1.875-3.875 1.875-3.875 3-5"/><path fill="#113351" d="m491 435 1 2-1 2c-2.062-.25-2.062-.25-4-1v-2c1.938-.75 1.938-.75 4-1"/><path fill="#253b54" d="M456 418v3c-1.375 1.313-1.375 1.313-3 2l-2-2z"/><path fill="#3c5770" d="m470 413-2 4-4-3c3-1 3-1 6-1"/><path fill="#a28387" d="M7 381c-4.75 3-4.75 3-7 3l1-3c2.49-1.245 3.41-.777 6 0"/><path fill="#133453" d="M513 436h3c-.375 1.938-.375 1.938-1 4l-2 1c-.187-2.5-.187-2.5 0-5"/><path fill="#23435f" d="m469 432 2 3h-3zm-2 4h2l-1 2z"/><path fill="#0b253d" d="M434 453h3c-.375 2-.375 2-1 4h-2c-.312-2-.312-2 0-4"/><path fill="#284563" d="M465 448h2l-1 5-1-2-2-1z"/><path fill="#133352" d="M492 413h3l1 3-5-1z"/><path fill="#708798" d="m511 421 4 4h-3c-.687-2-.687-2-1-4"/><path fill="#34465d" d="m464 498 2 2-3 1-2-2z"/><path fill="#3e5468" d="m449 491 3 1-1 3-2-1z"/><path fill="#2b4158" d="M440 434h2l-1 3h-2z"/><path fill="#4d667d" d="m507 429 3 1v2l-3-1z"/><path fill="#113250" d="M502 423h2v3l-3-1z"/><path fill="#233a51" d="M458 496h2l-1 3-2-2z"/></svg>