<?xml version="1.0" encoding="UTF-8" standalone="no"?>
<svg
   xmlns:dc="http://purl.org/dc/elements/1.1/"
   xmlns:cc="http://creativecommons.org/ns#"
   xmlns:rdf="http://www.w3.org/1999/02/22-rdf-syntax-ns#"
   xmlns:svg="http://www.w3.org/2000/svg"
   xmlns="http://www.w3.org/2000/svg"
   xml:space="preserve"
   style="enable-background:new 0 0 322 42;"
   viewBox="0 0 322 42"
   height="20px"
   width="153px"
   y="0px"
   x="0px"
   id="Layer_1"
   version="1.1"><metadata
     id="metadata587"><rdf:RDF><cc:Work
         rdf:about=""><dc:format>image/svg+xml</dc:format><dc:type
           rdf:resource="http://purl.org/dc/dcmitype/StillImage" /><dc:title></dc:title></cc:Work></rdf:RDF></metadata><defs
     id="defs585" /><style
     id="style3"
     type="text/css">
	.st0{fill:#68B1F0;}
	.st1{fill:#FFFFFF;}
	.st2{fill:#00589F;}
	.st3{fill:#F8AC32;}
	.st4{fill:#F9A51A;}
	.st5{fill:#666B71;}
	.st6{fill:#FBB231;}
	.st7{fill:#EC1C2E;}
	.st8{fill:#C1C1C1;}
	.st9{fill:#376FB1;}
	.st10{fill:#B73D28;}
	.st11{fill:#8AAF3E;}
	.st12{fill:#4A66D4;}
</style><g
     id="g5"><g
       id="g7"><g
         id="g9"><path
           id="path11"
           d="M187.9,35.3c0,2.2-1.8,4-4,4h-47.7c-2.2,0-4-1.8-4-4V5c0-2.2,1.8-4,4-4h47.7c2.2,0,4,1.8,4,4V35.3     L187.9,35.3z"
           class="st0" /></g></g><g
       id="g13"><g
         id="g15"><path
           id="path17"
           d="M137.3,15.3l-1.1-2.6l-1.1,2.6 M161.1,14.2c-0.2,0.1-0.5,0.1-0.8,0.1h-1.9v-1.5h1.9c0.3,0,0.6,0,0.7,0.1     c0.2,0.1,0.3,0.3,0.3,0.6C161.4,13.9,161.3,14.1,161.1,14.2z M174.8,15.3l-1.1-2.6l-1.1,2.6H174.8z M149.3,18.1h-1.6l0-5.2     l-2.3,5.2H144l-2.3-5.2v5.2h-3.2l-0.6-1.5h-3.3l-0.6,1.5h-1.7l2.8-6.6h2.3l2.7,6.2v-6.2h2.6l2.1,4.5l1.9-4.5h2.6L149.3,18.1     L149.3,18.1z M155.7,18.1h-5.3v-6.6h5.3v1.4H152v1.2h3.6v1.4H152v1.3h3.7V18.1z M163.2,13.3c0,1.1-0.7,1.6-1.1,1.8     c0.3,0.1,0.6,0.4,0.8,0.6c0.2,0.3,0.3,0.6,0.3,1.2v1.3h-1.6l0-0.8c0-0.4,0-1-0.3-1.3c-0.2-0.2-0.6-0.3-1.1-0.3h-1.7v2.4h-1.6     v-6.6h3.6c0.8,0,1.4,0,1.9,0.3C162.9,12.1,163.2,12.5,163.2,13.3z M165.7,18.1h-1.6v-6.6h1.6V18.1z M184.4,18.1h-2.2l-3-5v5h-3.2     l-0.6-1.5H172l-0.6,1.5h-1.8c-0.8,0-1.7-0.2-2.3-0.7c-0.6-0.6-0.8-1.3-0.8-2.5c0-1,0.2-1.9,0.8-2.6c0.5-0.5,1.3-0.8,2.4-0.8h1.5     v1.4h-1.5c-0.6,0-0.9,0.1-1.2,0.4c-0.3,0.3-0.5,0.8-0.5,1.5c0,0.7,0.1,1.2,0.4,1.6c0.2,0.3,0.7,0.3,1.1,0.3h0.7l2.2-5.2h2.4     l2.7,6.2v-6.2h2.4l2.8,4.6v-4.6h1.6V18.1L184.4,18.1z M132.2,19.4h2.7l0.6-1.5h1.4l0.6,1.5h5.3v-1.1l0.5,1.1h2.8l0.5-1.1v1.1     h13.2l0-2.4h0.3c0.2,0,0.2,0,0.2,0.3v2.1h6.8v-0.6c0.6,0.3,1.4,0.6,2.5,0.6h2.9l0.6-1.5h1.4l0.6,1.5h5.5V18l0.8,1.4h4.4v-9.2     h-4.4v1.1l-0.6-1.1h-4.5v1.1l-0.6-1.1h-6.1c-1,0-1.9,0.1-2.6,0.5v-0.5h-4.2v0.5c-0.5-0.4-1.1-0.5-1.8-0.5h-15.3l-1,2.4l-1.1-2.4     h-4.8v1.1l-0.5-1.1h-4.1l-1.9,4.4L132.2,19.4L132.2,19.4z"
           class="st1" /></g><g
         id="g19"><path
           id="path21"
           d="M188.4,24.3h-2.9c-0.3,0-0.5,0-0.6,0.1c-0.2,0.1-0.2,0.3-0.2,0.5c0,0.2,0.1,0.4,0.3,0.5     c0.2,0.1,0.3,0.1,0.6,0.1l0.9,0c0.9,0,1.4,0.2,1.8,0.5c0.1,0,0.1,0.1,0.1,0.2 M188.4,28.6c-0.4,0.6-1.1,0.8-2.1,0.8h-3V28h3     c0.3,0,0.5,0,0.6-0.2c0.1-0.1,0.2-0.3,0.2-0.4c0-0.2-0.1-0.3-0.2-0.4c-0.1-0.1-0.3-0.1-0.6-0.1c-1.5-0.1-3.3,0-3.3-2     c0-1,0.6-2,2.3-2h3.1v-1.3h-2.9c-0.9,0-1.5,0.2-2,0.5v-0.5h-4.3c-0.7,0-1.5,0.2-1.9,0.5v-0.5h-7.7v0.5c-0.6-0.4-1.6-0.5-2.1-0.5     h-5.1v0.5c-0.5-0.5-1.6-0.5-2.2-0.5h-5.7l-1.3,1.4l-1.2-1.4h-8.5v9.2h8.3l1.3-1.4l1.3,1.4l5.1,0v-2.2h0.5c0.7,0,1.5,0,2.2-0.3     v2.5h4.2v-2.4h0.2c0.3,0,0.3,0,0.3,0.3v2.1h12.9c0.8,0,1.7-0.2,2.1-0.6v0.6h4.1c0.8,0,1.7-0.1,2.3-0.4L188.4,28.6L188.4,28.6z      M182.1,26c0.3,0.3,0.5,0.7,0.5,1.4c0,1.4-0.9,2.1-2.5,2.1H177V28h3.1c0.3,0,0.5,0,0.6-0.2c0.1-0.1,0.2-0.3,0.2-0.4     c0-0.2-0.1-0.3-0.2-0.4c-0.1-0.1-0.3-0.1-0.6-0.1c-1.5-0.1-3.3,0-3.3-2c0-1,0.6-2,2.3-2h3.2v1.4h-2.9c-0.3,0-0.5,0-0.6,0.1     c-0.2,0.1-0.2,0.3-0.2,0.5c0,0.3,0.1,0.4,0.3,0.5c0.2,0.1,0.3,0.1,0.6,0.1l0.8,0C181.1,25.5,181.7,25.6,182.1,26z M167.8,25.6     c-0.2,0.1-0.5,0.1-0.8,0.1h-1.9v-1.5h1.9c0.3,0,0.6,0,0.8,0.1c0.2,0.1,0.3,0.3,0.3,0.6C168.2,25.2,168,25.4,167.8,25.6z      M168.8,26.4c0.3,0.1,0.6,0.4,0.8,0.6c0.2,0.3,0.3,0.6,0.3,1.2v1.3h-1.6v-0.8c0-0.4,0-1-0.3-1.3c-0.2-0.2-0.6-0.3-1.2-0.3h-1.7     v2.4h-1.6v-6.6h3.6c0.8,0,1.4,0,1.9,0.3c0.5,0.3,0.8,0.7,0.8,1.5C169.9,25.7,169.2,26.2,168.8,26.4z M170.8,22.9h5.3v1.4h-3.7     v1.2h3.6v1.3h-3.6v1.3l3.7,0v1.4h-5.3V22.9z M160.1,25.9h-2v-1.7h2.1c0.6,0,1,0.2,1,0.8C161.1,25.6,160.7,25.9,160.1,25.9z      M156.5,28.9l-2.4-2.7l2.4-2.6V28.9z M150.3,28.1h-3.9v-1.3h3.5v-1.3h-3.5v-1.2h4l1.7,1.9L150.3,28.1z M162.8,25     c0,1.8-1.4,2.2-2.7,2.2h-2v2.2H155l-1.9-2.2l-2,2.2h-6.2v-6.6h6.3l1.9,2.2l2-2.2h5C161.4,22.9,162.8,23.2,162.8,25z"
           class="st1" /></g></g></g><g
     id="g23"><g
       id="g25"><g
         id="g27"><rect
           id="rect29"
           height="23"
           width="56"
           class="st1"
           y="8.8"
           x="1.3" /></g></g><g
       id="g31"><g
         id="g33"><g
           id="g35"><g
             id="g37"><path
               id="path39"
               d="M52.7,1H5C2.8,1,1,2.8,1,5v3.2h55.7V5C56.7,2.8,54.9,1,52.7,1z"
               class="st2" /></g></g><g
           id="g41"><g
             id="g43"><path
               id="path45"
               d="M1,35.3c0,2.2,1.8,4,4,4h47.7c2.2,0,4-1.8,4-4v-3.2H1V35.3z"
               class="st3" /></g></g></g><g
         id="g47"><g
           id="g49"><g
             id="g51"><polygon
               id="polygon53"
               points="22.1,25.8 24.2,13.4 27.6,13.4 25.5,25.8      "
               class="st2" /></g></g><g
           id="g55"><g
             id="g57"><path
               id="path59"
               d="M37.8,13.7c-0.7-0.3-1.7-0.5-3-0.5c-3.4,0-5.7,1.7-5.7,4.1c0,1.8,1.7,2.8,3,3.4c1.3,0.6,1.8,1,1.8,1.5       c0,0.8-1.1,1.2-2,1.2c-1.4,0-2.1-0.2-3.2-0.7l-0.4-0.2l-0.5,2.8c0.8,0.3,2.3,0.6,3.8,0.7c3.6,0,5.9-1.7,5.9-4.3       c0-1.4-0.9-2.5-2.8-3.4c-1.2-0.6-1.9-1-1.9-1.5c0-0.5,0.6-1.1,1.9-1.1c1.1,0,1.9,0.2,2.5,0.5l0.3,0.1L37.8,13.7"
               class="st2" /></g></g><g
           id="g61"><g
             id="g63"><path
               id="path65"
               d="M46.5,13.4h-2.6c-0.8,0-1.4,0.2-1.8,1l-5,11.4h3.6c0,0,0.6-1.5,0.7-1.9c0.4,0,3.9,0,4.3,0       c0.1,0.4,0.4,1.9,0.4,1.9h3.1L46.5,13.4 M42.3,21.4c0.3-0.7,1.4-3.5,1.4-3.5c0,0,0.3-0.7,0.4-1.2l0.2,1.1c0,0,0.6,3,0.8,3.6       L42.3,21.4L42.3,21.4z"
               class="st2" /></g></g><g
           id="g67"><g
             id="g69"><path
               id="path71"
               d="M19.2,13.4l-3.3,8.5l-0.4-1.7c-0.6-2-2.5-4.1-4.7-5.2l3,10.9l3.6,0l5.3-12.4L19.2,13.4"
               class="st2" /></g></g><g
           id="g73"><g
             id="g75"><path
               id="path77"
               d="M12.8,13.4H7.4l0,0.3c4.3,1,7.1,3.5,8.2,6.5l-1.2-5.7C14.2,13.6,13.6,13.4,12.8,13.4"
               class="st4" /></g></g></g></g></g><g
     id="g79"><g
       id="g81"><g
         id="g83"><path
           id="path85"
           d="M122.4,35.3c0,2.2-1.8,4-4,4H70.7c-2.2,0-4-1.8-4-4V5c0-2.2,1.8-4,4-4h47.7c2.2,0,4,1.8,4,4V35.3z"
           class="st5" /></g></g><g
       id="g87"><g
         id="g89"><g
           id="g91"><polygon
             id="polygon93"
             points="102.2,31.7 102.8,31.7 103.3,31.7 103.9,31.6 104.5,31.5 105,31.4 105.6,31.2 106.1,31 106.6,30.8       107.1,30.6 107.6,30.4 108.1,30.1 108.6,29.8 109,29.5 109.4,29.1 109.9,28.8 110.3,28.4 110.6,28 111,27.6 111.3,27.1       111.7,26.7 112,26.2 112.2,25.7 112.5,25.3 112.7,24.7 112.9,24.2 113.1,23.7 113.2,23.2 113.4,22.6 113.5,22 113.5,21.5       113.6,20.9 113.6,20.3 113.6,19.7 113.5,19.1 113.5,18.6 113.4,18 113.2,17.5 113.1,16.9 112.9,16.4 112.7,15.9 112.5,15.4       112.2,14.9 112,14.4 111.7,13.9 111.3,13.5 111,13.1 110.6,12.6 110.3,12.2 109.9,11.9 109.4,11.5 109,11.2 108.6,10.9       108.1,10.6 107.6,10.3 107.1,10 106.6,9.8 106.1,9.6 105.6,9.4 105,9.3 104.5,9.1 103.9,9 103.3,9 102.8,8.9 102.2,8.9       101.6,8.9 101,9 100.4,9 99.9,9.1 99.3,9.3 98.8,9.4 98.3,9.6 97.7,9.8 97.2,10 96.7,10.3 96.3,10.6 95.8,10.9 95.4,11.2       94.9,11.5 94.5,11.9 94.1,12.2 93.7,12.6 93.4,13.1 93,13.5 92.7,13.9 92.4,14.4 92.2,14.9 91.9,15.4 91.7,15.9 91.5,16.4       91.3,16.9 91.1,17.5 91,18 90.9,18.6 90.8,19.1 90.8,19.7 90.8,20.3 90.8,20.9 90.8,21.5 90.9,22 91,22.6 91.1,23.2 91.3,23.7       91.5,24.2 91.7,24.7 91.9,25.3 92.2,25.7 92.4,26.2 92.7,26.7 93,27.1 93.4,27.6 93.7,28 94.1,28.4 94.5,28.8 94.9,29.1       95.4,29.5 95.8,29.8 96.3,30.1 96.7,30.4 97.2,30.6 97.7,30.8 98.3,31 98.8,31.2 99.3,31.4 99.9,31.5 100.4,31.6 101,31.7       101.6,31.7     "
             class="st6" /></g></g><g
         id="g95"><g
           id="g97"><polygon
             id="polygon99"
             points="86.9,31.7 87.5,31.7 88.1,31.7 88.6,31.6 89.2,31.5 89.8,31.4 90.3,31.2 90.8,31 91.3,30.8       91.8,30.6 92.3,30.4 92.8,30.1 93.3,29.8 93.7,29.5 94.2,29.1 94.6,28.8 95,28.4 95.3,28 95.7,27.6 96,27.1 96.4,26.7       96.6,26.2 96.9,25.7 97.2,25.3 97.4,24.7 97.6,24.2 97.8,23.7 97.9,23.2 98.1,22.6 98.2,22 98.2,21.5 98.3,20.9 98.3,20.3       98.3,19.7 98.2,19.1 98.2,18.6 98.1,18 97.9,17.5 97.8,16.9 97.6,16.4 97.4,15.9 97.2,15.4 96.9,14.9 96.6,14.4 96.4,13.9       96,13.5 95.7,13.1 95.3,12.6 95,12.2 94.6,11.9 94.2,11.5 93.7,11.2 93.3,10.9 92.8,10.6 92.3,10.3 91.8,10 91.3,9.8 90.8,9.6       90.3,9.4 89.8,9.3 89.2,9.1 88.6,9 88.1,9 87.5,8.9 86.9,8.9 86.3,8.9 85.7,9 85.2,9 84.6,9.1 84,9.3 83.5,9.4 83,9.6 82.5,9.8       81.9,10 81.5,10.3 81,10.6 80.5,10.9 80.1,11.2 79.6,11.5 79.2,11.9 78.8,12.2 78.4,12.6 78.1,13.1 77.7,13.5 77.4,13.9       77.1,14.4 76.8,14.9 76.6,15.4 76.4,15.9 76.2,16.4 76,16.9 75.8,17.5 75.7,18 75.6,18.6 75.5,19.1 75.5,19.7 75.5,20.3       75.5,20.9 75.5,21.5 75.6,22 75.7,22.6 75.8,23.2 76,23.7 76.2,24.2 76.4,24.7 76.6,25.3 76.8,25.7 77.1,26.2 77.4,26.7       77.7,27.1 78.1,27.6 78.4,28 78.8,28.4 79.2,28.8 79.6,29.1 80.1,29.5 80.5,29.8 81,30.1 81.5,30.4 81.9,30.6 82.5,30.8 83,31       83.5,31.2 84,31.4 84.6,31.5 85.2,31.6 85.7,31.7 86.3,31.7     "
             class="st7" /></g></g><g
         id="g101"><g
           id="g103"><polygon
             id="polygon105"
             points="93.2,13.3 99.3,13.3 99.3,12.7 93.7,12.7     "
             class="st6" /></g></g><g
         id="g107"><g
           id="g109"><polygon
             id="polygon111"
             points="92.3,14.7 99.3,14.7 99.3,14 92.7,14     "
             class="st6" /></g></g><g
         id="g113"><g
           id="g115"><polygon
             id="polygon117"
             points="91.6,16 99.3,16 99.3,15.4 91.9,15.4     "
             class="st6" /></g></g><g
         id="g119"><g
           id="g121"><polygon
             id="polygon123"
             points="91.2,17.4 99.3,17.4 99.3,16.8 91.3,16.8     "
             class="st6" /></g></g><g
         id="g125"><g
           id="g127"><polygon
             id="polygon129"
             points="91.4,24.1 99.3,24.1 99.3,23.5 91.2,23.5     "
             class="st6" /></g></g><g
         id="g131"><g
           id="g133"><polygon
             id="polygon135"
             points="92,25.5 99.3,25.5 99.3,24.8 91.7,24.8     "
             class="st6" /></g></g><g
         id="g137"><g
           id="g139"><polygon
             id="polygon141"
             points="92.8,26.8 99.3,26.8 99.3,26.2 92.4,26.2     "
             class="st6" /></g></g><g
         id="g143"><g
           id="g145"><polygon
             id="polygon147"
             points="93.9,28.2 99.3,28.2 99.3,27.6 93.4,27.6     "
             class="st6" /></g></g><g
         id="g149"><g
           id="g151"><polygon
             id="polygon153"
             points="90.9,18.8 99.3,18.8 99.3,18.2 91,18.2     "
             class="st6" /></g></g><g
         id="g155"><g
           id="g157"><polygon
             id="polygon159"
             points="96,22.7 99.2,22.7 99.2,22.1 96.1,22.1     "
             class="st6" /></g></g><g
         id="g161"><g
           id="g163"><polygon
             id="polygon165"
             points="96.2,21.3 99.2,21.3 99.2,20.7 96.4,20.7     "
             class="st6" /></g></g><g
         id="g167"><g
           id="g169"><polygon
             id="polygon171"
             points="90.7,20.7 91.5,20.7 91.5,21.3 90.7,21.3     "
             class="st6" /></g></g><g
         id="g173"><g
           id="g175"><polygon
             id="polygon177"
             points="89.1,20 89.1,19.9 89,19.9 89,19.9 88.9,19.9 88.9,19.9 88.8,19.9 88.8,19.9 88.7,19.9 88.7,19.9       88.6,19.9 88.5,19.9 88.4,19.9 88.4,19.9 88.3,19.9 88.2,19.9 88.1,19.9 88,19.9 87.9,19.9 87.9,19.9 87.8,20 87.7,20 87.7,20       87.7,20.1 87.6,20.1 87.6,20.1 87.6,20.2 87.6,20.2 87.6,20.3 87.6,20.3 87.6,20.4 87.6,20.4 87.7,20.5 87.7,20.5 87.8,20.6       87.9,20.7 88.1,20.7 88.2,20.7 88.3,20.8 88.4,20.8 88.6,20.9 88.7,20.9 88.8,21 88.9,21.1 89,21.2 89,21.4 89.1,21.6       89.1,21.8 89.1,22 89,22.2 89,22.3 88.9,22.5 88.8,22.6 88.8,22.7 88.7,22.8 88.5,22.9 88.4,23 88.3,23 88.2,23.1 88,23.1       87.9,23.2 87.8,23.2 87.7,23.2 87.5,23.2 87.4,23.2 87.2,23.2 87.1,23.2 87,23.2 86.8,23.2 86.7,23.2 86.6,23.2 86.5,23.2       86.4,23.2 86.3,23.2 86.3,23.1 86.2,23.1 86.1,23.1 86.1,23.1 86,23.1 85.9,23 85.9,23 86.1,22.2 86.1,22.2 86.1,22.2       86.2,22.2 86.2,22.2 86.3,22.2 86.4,22.3 86.5,22.3 86.6,22.3 86.7,22.3 86.8,22.3 86.9,22.3 87,22.3 87.1,22.3 87.2,22.4       87.3,22.4 87.4,22.3 87.5,22.3 87.6,22.3 87.7,22.3 87.8,22.2 87.8,22.1 87.8,22.1 87.8,22 87.9,22 87.9,21.9 87.8,21.8       87.8,21.7 87.7,21.6 87.6,21.6 87.4,21.5 87.3,21.4 87.1,21.4 87,21.3 86.8,21.2 86.7,21.1 86.6,21 86.5,20.9 86.4,20.7       86.4,20.5 86.4,20.2 86.4,20.1 86.4,19.9 86.4,19.8 86.5,19.7 86.6,19.6 86.6,19.5 86.7,19.4 86.8,19.3 86.9,19.2 87,19.2       87.2,19.1 87.3,19.1 87.5,19 87.7,19 87.9,19 88.1,19 88.3,19 88.4,19 88.5,19 88.6,19 88.7,19 88.8,19 88.9,19 89,19 89,19       89.1,19 89.1,19 89.2,19.1 89.2,19.1 89.2,19.1 89.3,19.1 89.3,19.1     "
             class="st1" /></g></g><g
         id="g179"><g
           id="g181"><path
             id="path183"
             d="M87.4,23.3l-1.1,0l-0.6-0.2L86,22l1,0.2l0.3,0l0.1,0l0.2,0l0,0l0.1-0.1l0-0.1l0-0.1l0-0.1l0-0.1l-0.1-0.1      l-0.2-0.1l-0.3-0.1l-0.2-0.1l-0.2-0.1l-0.1-0.1l-0.1-0.1l-0.1-0.2l-0.1-0.2l0-0.2l0-0.3l0-0.3l0.1-0.3l0.1-0.1l0.1-0.1l0.1-0.1      l0.1-0.1l0.1-0.1l0.3-0.1l0.2,0l0.4-0.1l0.6,0l0.8,0.1l0.4,0.1l-0.2,1.1L88.4,20l-0.5,0l-0.2,0.1l-0.1,0.1l0,0l0,0.1l0.1,0.1      l0.1,0.1l0.2,0.1l0.6,0.2l0.1,0.1l0.1,0.1l0.1,0.1l0.1,0.1l0.1,0.2l0,0.2l0,0.2l0,0.3l0,0.2l0,0.2L89,22.5l-0.1,0.1l-0.1,0.1      l-0.1,0.1L88.6,23l-0.1,0.1l-0.3,0.1l-0.3,0.1l-0.1,0L87.4,23.3z M87.1,23.1l0.3,0l0.4,0L88,23l0.2-0.1l0.1-0.1l0.2-0.1l0.1-0.1      l0.1-0.1l0.1-0.1l0.1-0.1l0-0.1l0-0.2l0-0.2l0-0.2l0-0.2l-0.1-0.1l-0.1-0.1l-0.1-0.1L88.6,21l-0.2-0.1l-0.6-0.2l-0.1-0.1      l-0.1-0.1l-0.1-0.1l0-0.1l0-0.1l0-0.1l0.1-0.1l0,0l0.1-0.1l0.1-0.1l0.5,0l0.1,0l0.6,0.1l0.2-0.7l-0.7-0.1l-0.4,0l-0.4,0      l-0.3,0.1l-0.1,0L87,19.3l-0.1,0.1l-0.1,0.1l-0.1,0.2l-0.1,0.1L86.5,20l0,0.3l0,0.2l0,0.2l0.1,0.1l0.1,0.1l0.1,0.1l0.1,0.1      l0.1,0.1l0.7,0.3l0.1,0.1l0.1,0.1l0,0.1l0,0.1l0,0.1l-0.1,0.1l-0.1,0.1l-0.1,0l-0.1,0l-0.1,0l-0.2,0l-0.7-0.1l-0.3-0.1L86,23      l0.4,0.1L87.1,23.1z"
             class="st1" /></g></g><g
         id="g185"><g
           id="g187"><polygon
             id="polygon189"
             points="90,18.1 91.1,18.1 90.9,19.1 91.6,19.1 91.4,19.9 90.8,19.9 90.4,22.1 90.4,22.1 90.4,22.2       90.4,22.3 90.5,22.3 90.6,22.3 90.6,22.3 90.7,22.4 90.8,22.4 90.9,22.4 91,22.4 91.1,22.3 91.1,22.3 91.2,22.3 91.2,22.3       91.2,22.3 91.2,22.3 91.1,23 91.1,23 91,23 91,23.1 91,23.1 91,23.1 90.9,23.1 90.9,23.1 90.9,23.1 90.8,23.1 90.8,23.1       90.7,23.1 90.7,23.2 90.6,23.2 90.6,23.2 90.5,23.2 90.5,23.2 90.2,23.2 90,23.2 89.9,23.2 89.7,23.1 89.6,23.1 89.6,23.1       89.5,23 89.4,23 89.4,22.9 89.3,22.9 89.3,22.8 89.3,22.8 89.3,22.7 89.3,22.6 89.3,22.5 89.3,22.4 89.3,22.3     "
             class="st1" /></g></g><g
         id="g191"><g
           id="g193"><path
             id="path195"
             d="M90.5,23.3l-0.5,0l-0.3,0l-0.2-0.1l-0.1,0l-0.1-0.1l-0.1-0.1l-0.1-0.2l0-0.2l0-0.3l0.8-4.3h1.3L91.1,19h0.6      L91.5,20l-0.7,0l-0.4,2.1l0,0l0,0l0.1,0l0.2,0l0.3-0.1l0.2-0.1l0,0.2l-0.1,0.8l-0.3,0.2L90.5,23.3L90.5,23.3z M90.1,18.2      l-0.7,4.3l0,0.2l0,0.1l0.1,0.1l0.1,0.1l0.2,0.1l0.2,0l0.2,0l0.8-0.1l0.1-0.5l-0.1,0l-0.2,0l-0.2,0l-0.2-0.1l0,0l-0.1-0.1l0-0.1      l0-0.1l0.4-2.3l0.7,0l0.1-0.7h-0.6l0.2-0.9L90.1,18.2L90.1,18.2z"
             class="st1" /></g></g><g
         id="g197"><g
           id="g199"><polygon
             id="polygon201"
             points="92.4,21.4 92.4,21.4 92.4,21.5 92.4,21.6 92.4,21.7 92.5,21.7 92.5,21.8 92.5,21.9 92.6,21.9       92.6,22 92.7,22.1 92.8,22.1 92.8,22.2 92.9,22.2 93,22.2 93,22.3 93.1,22.3 93.2,22.3 93.3,22.3 93.4,22.3 93.5,22.3       93.6,22.3 93.7,22.3 93.8,22.3 93.9,22.3 94,22.3 94.1,22.3 94.2,22.3 94.3,22.2 94.5,22.2 94.6,22.1 94.7,22.1 94.8,22       94.6,23 94.6,23 94.5,23 94.4,23.1 94.4,23.1 94.3,23.1 94.3,23.1 94.2,23.1 94.1,23.1 94.1,23.2 94,23.2 93.9,23.2 93.8,23.2       93.7,23.2 93.6,23.2 93.5,23.2 93.4,23.2 93.2,23.2 93,23.2 92.8,23.1 92.6,23.1 92.4,23 92.2,23 92.1,22.9 91.9,22.7       91.8,22.6 91.6,22.5 91.5,22.3 91.4,22.1 91.4,21.9 91.3,21.6 91.3,21.3 91.3,21 91.3,20.9 91.4,20.7 91.4,20.6 91.4,20.4       91.5,20.3 91.6,20.1 91.7,19.9 91.8,19.8 91.9,19.6 92,19.5 92.2,19.3 92.4,19.2 92.6,19.1 92.9,19 93.1,19 93.5,19 93.6,19       93.8,19 93.9,19 94.1,19.1 94.2,19.1 94.4,19.2 94.5,19.3 94.7,19.4 94.8,19.5 94.9,19.7 94.9,19.9 95,20.1 95,20.3 95,20.5       95,20.8 94.9,21.2 94.9,21.4 92.1,21.4 92.3,20.6 94,20.6 94,20.5 94,20.5 94,20.4 94,20.3 93.9,20.2 93.9,20.2 93.9,20.1       93.8,20 93.8,20 93.7,20 93.7,19.9 93.6,19.9 93.6,19.9 93.5,19.9 93.4,19.8 93.4,19.8 93.3,19.8 93.2,19.8 93.2,19.9       93.1,19.9 93,19.9 93,20 92.9,20 92.9,20 92.8,20.1 92.8,20.2 92.7,20.2 92.7,20.3 92.6,20.4 92.6,20.4 92.6,20.5 92.6,20.6           "
             class="st1" /></g></g><g
         id="g203"><g
           id="g205"><path
             id="path207"
             d="M93.5,23.3l-0.3,0l-0.4,0l-0.4-0.1l-0.2-0.1L92,23l-0.2-0.1l-0.2-0.1l-0.1-0.2l-0.1-0.2l-0.1-0.2l-0.1-0.2      l0-0.3l0-0.3l0-0.5l0.1-0.3l0-0.2l0.1-0.3l0.1-0.2l0.1-0.2l0.1-0.2l0.2-0.2l0.2-0.1l0.2-0.1l0.2-0.1l0.3-0.1l0.3,0l0.3,0l0.2,0      l0.3,0l0.2,0l0.3,0.1l0.2,0.1l0.1,0.1l0.1,0.1l0.1,0.2l0.1,0.2l0.1,0.2l0,0.2l0,0.3l0,0.3L95,21.2l0,0.3l-2.5,0l0,0.1l0.1,0.2      l0.1,0.2l0.1,0.1l0.1,0.1l0.1,0l0.5,0l0.3,0l0.3-0.1l0.3-0.1l0.4-0.2L94.7,23l-0.4,0.2L94,23.3L93.5,23.3z M93.5,19.1l-0.3,0      l-0.3,0l-0.2,0.1l-0.2,0.1l-0.2,0.1l-0.2,0.1L92,19.7l-0.1,0.1L91.7,20l-0.1,0.2l-0.1,0.3l-0.1,0.4l0,0.1l0,0.3l0,0.3l0,0.2      l0.1,0.2l0.1,0.2l0.1,0.2l0.1,0.1l0.1,0.1l0.2,0.1l0.2,0.1l0.2,0.1l0.4,0.1l0.4,0l0.3,0l0.7-0.1l0.3-0.1l0.1-0.7l-0.3,0.1      l-0.3,0.1l-0.3,0l-0.5,0l-0.2,0l-0.2-0.1l-0.2-0.1l-0.1-0.1l-0.1-0.1l-0.1-0.2l0-0.2l0-0.1v0H92l0.2-1h0.3l0-0.1l0.1-0.2      l0.2-0.2l0.1-0.1l0.1-0.1l0.2,0l0.2,0l0.2,0l0.2,0.1l0.1,0.1l0.1,0.1l0.1,0.2l0,0.2l0,0.1l0,0.2h-1.4l-0.1,0.5h2.3l0-0.1      l0.1-0.3l0-0.3l0-0.3l0-0.2l-0.1-0.2l-0.1-0.2l-0.1-0.1l-0.1-0.1l-0.1-0.1l-0.1-0.1L94,19.2l-0.3-0.1L93.5,19.1z M92.7,20.5h1.2      l0-0.2l-0.1-0.2l-0.1-0.1L93.5,20l-0.2,0l-0.2,0L93,20.1l-0.2,0.2L92.7,20.5L92.7,20.5z"
             class="st1" /></g></g><g
         id="g209"><g
           id="g211"><polygon
             id="polygon213"
             points="101.6,19.3 101.6,19.3 101.5,19.2 101.5,19.2 101.4,19.2 101.3,19.2 101.3,19.1 101.2,19.1       101.1,19.1 101.1,19.1 101,19.1 100.9,19 100.8,19 100.7,19 100.7,19 100.6,19 100.5,19 100.4,19 100.3,19 100.2,19 100.1,19.1       100,19.1 99.8,19.1 99.7,19.2 99.6,19.3 99.5,19.3 99.4,19.4 99.3,19.6 99.2,19.7 99.2,19.9 99.1,20.1 99,20.3 98.9,20.5       98.9,20.7 98.9,20.8 98.9,20.9 98.9,21.1 98.9,21.2 98.9,21.3 99,21.4 99,21.6 99.1,21.7 99.1,21.8 99.2,21.8 99.3,21.9       99.4,22 99.5,22.1 99.7,22.1 99.8,22.1 99.9,22.1 99.9,22.2 100,22.2 100.1,22.2 100.1,22.2 100.2,22.2 100.3,22.2 100.4,22.2       100.5,22.2 100.6,22.1 100.7,22.1 100.8,22.1 100.9,22 101,22 101.1,21.9 101.2,21.9 101,22.9 101,22.9 100.9,22.9 100.9,23       100.9,23 100.8,23 100.8,23 100.7,23.1 100.7,23.1 100.6,23.1 100.5,23.1 100.3,23.2 100.2,23.2 100.1,23.2 99.9,23.2       99.7,23.2 99.5,23.2 99.3,23.1 99.1,23.1 98.9,23 98.8,23 98.6,22.9 98.4,22.8 98.3,22.6 98.1,22.5 98,22.3 97.9,22.1       97.8,21.9 97.7,21.7 97.7,21.4 97.7,21.1 97.7,20.8 97.7,20.5 97.8,20.4 97.8,20.2 97.8,20 97.9,19.9 97.9,19.8 98,19.6       98,19.5 98.1,19.4 98.1,19.3 98.2,19.2 98.3,19 98.3,18.9 98.4,18.9 98.5,18.8 98.5,18.7 98.6,18.6 98.7,18.5 98.8,18.4       98.9,18.4 99,18.3 99.1,18.3 99.2,18.2 99.3,18.2 99.4,18.1 99.5,18.1 99.7,18.1 99.8,18 99.9,18 100,18 100.2,18 100.3,18       100.5,18 100.6,18 100.7,18 100.8,18 100.9,18 101,18 101.2,18 101.3,18.1 101.3,18.1 101.4,18.1 101.5,18.1 101.6,18.1       101.6,18.2 101.7,18.2 101.7,18.2 101.8,18.2 101.8,18.2     "
             class="st1" /></g></g><g
         id="g215"><g
           id="g217"><path
             id="path219"
             d="M99.9,23.3l-0.4,0l-0.2,0l-0.2,0l-0.2-0.1l-0.2-0.1L98.5,23l-0.2-0.1l-0.2-0.1l-0.2-0.2l-0.1-0.2l-0.1-0.2      l-0.1-0.2l-0.1-0.2l-0.1-0.3l0-0.3l0-0.3l0.1-0.5l0.2-0.6l0.2-0.5l0.1-0.2l0.2-0.3l0.2-0.2l0.3-0.2l0.2-0.1l0.3-0.1l0.4-0.1      l0.4-0.1l0.3,0l0.6,0.1l0.8,0.2l0.1,0l0,0.1l-0.2,1.2l-0.6-0.3l-0.3-0.1l-0.2,0l-0.5,0l-0.2,0l-0.2,0.1l-0.2,0.1l-0.1,0.1      l-0.1,0.1l-0.1,0.1l-0.2,0.3l-0.1,0.2L99,20.7l0,0.3l0,0.2l0.1,0.2l0,0.1l0.1,0.2l0.1,0.1l0.1,0.1l0.1,0.1l0.2,0.1l0.5,0.1      l0.4,0l0.3-0.1l0.2-0.1l0.1-0.1l0.2,0.1l-0.2,1.1l-0.2,0.2l-0.2,0.1l-0.2,0.1l-0.4,0L99.9,23.3z M100.5,18.1l-0.4,0l-0.5,0.1      l-0.4,0.2l-0.3,0.2l-0.2,0.2l-0.3,0.4l-0.2,0.3L98,19.8l-0.1,0.6l0,0.2l0,0.3l0,0.3l0,0.3l0,0.2l0.1,0.2l0.1,0.2l0.1,0.2      l0.1,0.2l0.1,0.1l0.1,0.1l0.2,0.1l0.2,0.1L99,23l0.2,0.1l0.2,0l0.4,0l0.2,0l0.6,0l0.3-0.1l0.1-0.1l0.1-0.7l-0.1,0.1l-0.3,0.1      l-0.4,0l-0.4,0l-0.1,0l-0.3-0.1L99.2,22l-0.1-0.1l-0.1-0.1L99,21.7l-0.1-0.1l-0.1-0.3l0-0.1l0-0.3l0-0.3l0-0.1l0.1-0.3L99,20      l0.1-0.2l0.1-0.2l0.1-0.2l0.1-0.1l0.1-0.1l0.1-0.1l0.1-0.1l0.2-0.1l0.2-0.1l0.5,0l0.5,0.1l0.4,0.1l0.2-0.8l-0.7-0.2l-0.4,0      L100.5,18.1z"
             class="st1" /></g></g><g
         id="g221"><g
           id="g223"><polygon
             id="polygon225"
             points="111.1,23.2 110,23.2 110.1,22.8 110.1,22.7 110,22.8 110,22.9 109.9,22.9 109.8,23 109.8,23       109.7,23.1 109.6,23.1 109.6,23.1 109.5,23.2 109.4,23.2 109.3,23.2 109.3,23.2 109.2,23.2 109.1,23.2 109,23.2 109,23.2       108.8,23.2 108.6,23.2 108.4,23.1 108.2,23 108.1,22.9 108,22.8 107.9,22.6 107.8,22.5 107.7,22.3 107.6,22.1 107.6,21.9       107.6,21.7 107.6,21.5 107.6,21.3 107.6,21.2 107.6,21 107.7,20.7 107.7,20.5 107.8,20.3 107.9,20.1 108,20 108.1,19.8       108.3,19.7 108.4,19.5 108.5,19.4 108.7,19.3 108.8,19.2 109,19.2 109.1,19.1 109.3,19.1 109.4,19.1 109.6,19.1 109.7,19.1       109.8,19.1 109.9,19.1 110,19.1 110.1,19.2 110.2,19.2 110.2,19.2 110.3,19.3 110.4,19.3 110.4,19.4 110.5,19.4 110.5,19.5       110.6,19.5 110.6,19.6 110.6,19.6 110.6,19.7 110.6,19.7 110.9,18.1 112,18.1     "
             class="st1" /></g></g><g
         id="g227"><g
           id="g229"><path
             id="path231"
             d="M109,23.4L109,23.4l-0.3,0l-0.2,0l-0.2-0.1l-0.2-0.1L108,23l-0.1-0.1l-0.1-0.1l-0.1-0.2l-0.1-0.2l-0.1-0.2      l0-0.2l0-0.2l0-0.2l0-0.2l0-0.2l0-0.2l0.1-0.2l0.1-0.2l0.1-0.2l0.2-0.4l0.2-0.3l0.1-0.1l0.1-0.1l0.2-0.1l0.2-0.1l0.2-0.1      l0.2-0.1l0.3-0.1l0.2,0l0.2,0L110,19l0.2,0.1l0.2,0.1l0.2,0.2l0.2-1.3h1.3l-0.9,5.3h-1.3l0-0.3l-0.2,0.1l-0.2,0.1L109,23.4      L109,23.4z M109.6,19.2l-0.1,0l-0.3,0.1l-0.3,0.1l-0.3,0.2l-0.1,0.1l-0.2,0.3l-0.1,0.1l-0.2,0.3l-0.1,0.2l-0.1,0.2l-0.1,0.2      l0,0.2l0,0.2l0,0.2l0,0.2l0.1,0.4l0.1,0.2l0.1,0.2l0.1,0.1l0.1,0.1l0.1,0.1l0.1,0.1l0.1,0.1l0.2,0.1l0.2,0l0.2,0l0.4,0l0.3-0.1      l0.2-0.1l0.2-0.2l0.1-0.1l0.2,0.1v0l-0.1,0.3h0.8l0.8-4.8H111l-0.3,1.4l-0.2,0l-0.1-0.2l-0.2-0.2l-0.2-0.1l-0.2-0.1l-0.2,0      L109.6,19.2z"
             class="st1" /></g></g><g
         id="g233"><g
           id="g235"><polygon
             id="polygon237"
             points="109.3,22.3 109.5,22.2 109.6,22.2 109.6,22.2 109.7,22.2 109.8,22.1 109.9,22 110,22 110,21.9       110.1,21.8 110.1,21.8 110.2,21.7 110.2,21.6 110.3,21.5 110.3,21.4 110.3,21.3 110.4,21.2 110.4,21.1 110.4,20.9 110.4,20.8       110.4,20.7 110.4,20.6 110.4,20.5 110.3,20.4 110.3,20.4 110.3,20.3 110.2,20.2 110.2,20.1 110.1,20.1 110,20 110,20 109.9,20       109.8,20 109.7,20 109.6,20 109.5,20 109.4,20.1 109.4,20.1 109.3,20.2 109.2,20.3 109.1,20.3 109.1,20.4 109,20.5 109,20.6       108.9,20.7 108.9,20.8 108.9,20.9 108.8,21 108.8,21.1 108.8,21.3 108.8,21.5 108.8,21.7 108.9,21.9 109,22 109.1,22.1       109.2,22.2     "
             class="st6" /></g></g><g
         id="g239"><g
           id="g241"><polygon
             id="polygon243"
             points="85.7,22.3 85.5,23.2 84.6,23.2 84.6,23 84.6,22.9 84.6,22.8 84.7,22.7 84.6,22.8 84.5,22.8       84.5,22.9 84.4,23 84.3,23 84.2,23.1 84.1,23.1 84,23.1 83.9,23.2 83.8,23.2 83.7,23.2 83.5,23.2 83.4,23.2 83.3,23.2       83.2,23.2 83.1,23.2 83,23.2 82.9,23.1 82.7,23.1 82.6,23 82.6,23 82.5,22.9 82.4,22.8 82.4,22.8 82.3,22.7 82.3,22.6       82.3,22.5 82.2,22.4 82.2,22.3 82.2,22.2 82.2,22.2 82.2,22.1 82.2,21.9 82.2,21.8 82.3,21.7 82.3,21.5 82.4,21.4 82.4,21.3       82.5,21.2 82.6,21.1 82.7,21 82.8,20.9 82.9,20.8 83.1,20.8 83.2,20.7 83.3,20.7 83.4,20.6 83.6,20.6 83.6,20.6 83.6,20.6       83.6,20.6 83.7,20.6 83.7,20.6 83.8,20.6 83.8,20.6 83.9,20.6 84,20.6 84,20.6 84.1,20.6 84.2,20.6 84.2,20.6 84.3,20.5       84.3,20.5 84.4,20.5 84.5,20.5 84.5,20.5 84.6,20.6 84.7,20.6 84.8,20.6 84.8,20.6 84.9,20.6 84.9,20.6 84.9,20.5 84.9,20.5       84.9,20.4 84.9,20.3 84.9,20.2 84.9,20.2 84.9,20.1 84.8,20 84.7,20 84.6,19.9 84.5,19.9 84.4,19.9 84.3,19.9 84.2,19.9       84.1,19.9 84,19.9 83.9,19.9 83.7,19.9 83.6,19.9 83.5,20 83.4,20 83.3,20 83.2,20 83.1,20 83,20 82.9,20.1 82.9,20.1       82.8,20.1 83.1,19.2 83.2,19.2 83.3,19.1 83.4,19.1 83.4,19.1 83.5,19.1 83.6,19 83.7,19 83.8,19 83.9,19 84.1,19 84.2,19       84.3,19 84.4,19 84.5,19 84.7,19 84.8,19 84.9,19 85,19 85.2,19.1 85.3,19.1 85.4,19.2 85.5,19.2 85.6,19.3 85.7,19.3       85.8,19.4 85.9,19.5 86,19.6 86.1,19.7 86.1,19.9 86.1,20 86.1,20.1 86.1,20.3     "
             class="st1" /></g></g><g
         id="g245"><g
           id="g247"><path
             id="path249"
             d="M83.3,23.4l-0.2,0l-0.3-0.1l-0.2-0.1L82.4,23l-0.1-0.2l-0.1-0.2l-0.1-0.2l0-0.3v-0.1l0-0.2l0-0.2l0-0.1      l0.1-0.1l0.1-0.1l0.2-0.2l0.2-0.2l0.2-0.2l0.3-0.1l0.3-0.1l1-0.1l0.4,0l0-0.1l0-0.1l-0.1-0.1l-0.1-0.1l-0.1,0l-0.4,0l-0.8,0.1      l-0.4,0.1l-0.2-0.1l0.3-1l0.3-0.1l0.4-0.1l0.8,0l0.4,0l0.3,0l0.3,0.1l0.1,0.1l0.2,0.1l0.2,0.2l0.1,0.1l0.1,0.1l0,0.1l0,0.1      l0,0.2l0,0.2l-0.6,3h-1.2l0-0.3l-0.2,0.1L84,23.2l-0.4,0.1L83.3,23.4z M84.3,20.7l-0.9,0.1l-0.2,0.1L83,20.9l-0.2,0.1l-0.2,0.2      l-0.1,0.2l-0.1,0.2l0,0.1l0,0.3l0,0.2l0,0.2l0.1,0.1l0.1,0.1l0.1,0.1l0.2,0.1l0.3,0.1l0.1,0l0.3,0L84,23l0.3-0.1l0.2-0.2      l0.1-0.1l0.2,0.1l0,0.2l0,0.2h0.8l0.1-0.8l0.4-2.2l0-0.1L86,19.8l-0.1-0.1l-0.1-0.2l-0.1-0.1l-0.2-0.1l-0.2-0.1L85,19.1l-0.2,0      l-0.6,0l-0.6,0.1l-0.4,0.1L83,19.9l0.3-0.1l0.7-0.1l0.2,0l0.3,0l0.1,0l0.1,0l0.1,0.1l0.1,0.1l0.1,0.1l0,0.1l0,0.1l0,0.2L85,20.7      L84.3,20.7z"
             class="st1" /></g></g><g
         id="g251"><g
           id="g253"><polygon
             id="polygon255"
             points="84.8,21.3 84.8,21.3 84.8,21.3 84.7,21.3 84.7,21.3 84.7,21.3 84.6,21.3 84.5,21.3 84.5,21.3       84.4,21.3 84.4,21.3 84.3,21.3 84.2,21.3 84.2,21.3 84.1,21.3 84.1,21.3 84,21.3 84,21.3 84,21.3 83.9,21.4 83.9,21.4       83.8,21.4 83.8,21.4 83.7,21.5 83.7,21.5 83.6,21.5 83.6,21.6 83.5,21.6 83.5,21.7 83.5,21.7 83.4,21.8 83.4,21.8 83.4,21.9       83.4,22 83.4,22.1 83.5,22.2 83.5,22.3 83.6,22.3 83.6,22.3 83.7,22.3 83.7,22.3 83.9,22.3 84,22.3 84.1,22.3 84.2,22.3       84.2,22.2 84.3,22.2 84.4,22.2 84.4,22.1 84.5,22.1 84.5,22.1 84.6,22 84.6,22 84.6,21.9 84.6,21.9 84.7,21.8 84.7,21.8       84.7,21.7 84.7,21.5 84.8,21.4     "
             class="st7" /></g></g><g
         id="g257"><g
           id="g259"><polygon
             id="polygon261"
             points="77.6,23.2 76.6,23.2 77.4,18.1 79.3,18.1 79.4,21.1 80.7,18.1 82.6,18.1 81.7,23.2 80.6,23.2       81.3,19.4 81.3,19.4 79.7,23.2 78.5,23.2 78.5,23 78.5,22.6 78.4,22 78.4,21.3 78.4,20.6 78.3,20 78.3,19.6 78.3,19.4       78.3,19.4 78.3,19.4 78.2,19.4 78.2,19.4     "
             class="st1" /></g></g><g
         id="g263"><g
           id="g265"><path
             id="path267"
             d="M81.8,23.3h-1.3l0.5-3.1l-1.3,3.1h-1.4l-0.2-3.2l-0.5,3.2h-1.3l0.9-5.3h2l0.2,2.6l1.1-2.6h2.1L81.8,23.3z       M80.8,23.1h0.8l0.9-4.8h-1.7l-1.2,2.9l-0.2,0l-0.2-2.9h-1.6l-0.8,4.8h0.8l0.6-3.8h0.2l0,0.1l0.2,3.7h1l1.6-3.8h0.2L80.8,23.1z"
             class="st1" /></g></g><g
         id="g269"><g
           id="g271"><polygon
             id="polygon273"
             points="104.8,22.3 104.7,23.2 103.7,23.2 103.7,23 103.7,22.9 103.7,22.8 103.7,22.7 103.7,22.8       103.6,22.9 103.5,22.9 103.5,23 103.4,23 103.3,23.1 103.2,23.1 103.1,23.1 103,23.2 102.9,23.2 102.8,23.2 102.7,23.2       102.5,23.2 102.4,23.2 102.3,23.2 102.2,23.2 102.1,23.2 102,23.1 101.9,23.1 101.8,23 101.7,23 101.6,22.9 101.5,22.8       101.5,22.8 101.4,22.7 101.4,22.6 101.4,22.5 101.4,22.4 101.3,22.3 101.3,22.2 101.3,22.2 101.3,22.1 101.3,21.9 101.4,21.8       101.4,21.7 101.4,21.5 101.5,21.4 101.6,21.3 101.6,21.2 101.7,21.1 101.8,21 101.9,20.9 102.1,20.8 102.2,20.8 102.3,20.7       102.4,20.7 102.5,20.6 102.7,20.6 102.7,20.6 102.7,20.6 102.7,20.6 102.8,20.6 102.8,20.6 102.9,20.6 102.9,20.6 103,20.6       103.1,20.6 103.1,20.6 103.2,20.6 103.3,20.6 103.3,20.6 103.4,20.5 103.4,20.5 103.5,20.5 103.6,20.5 103.7,20.5 103.7,20.6       103.8,20.6 103.9,20.6 104,20.6 104,20.6 104,20.6 104,20.5 104,20.5 104,20.4 104.1,20.3 104,20.2 104,20.2 104,20.1 103.9,20       103.8,20 103.7,19.9 103.7,19.9 103.6,19.9 103.5,19.9 103.3,19.9 103.2,19.9 103.1,19.9 103,19.9 102.9,19.9 102.7,19.9       102.6,20 102.5,20 102.4,20 102.3,20 102.2,20 102.1,20 102,20.1 102,20.1 101.9,20.1 102.2,19.2 102.3,19.2 102.4,19.1       102.5,19.1 102.6,19.1 102.7,19.1 102.8,19 102.9,19 103,19 103.1,19 103.2,19 103.3,19 103.4,19 103.5,19 103.7,19 103.8,19       103.9,19 104,19 104.1,19 104.3,19.1 104.4,19.1 104.5,19.2 104.6,19.2 104.7,19.3 104.8,19.3 104.9,19.4 105,19.5 105.1,19.6       105.2,19.7 105.2,19.9 105.2,20 105.2,20.1 105.2,20.3     "
             class="st1" /></g></g><g
         id="g275"><g
           id="g277"><polygon
             id="polygon279"
             points="104.7,23.2 104.7,23.2 104.8,22.3 104.8,22.3 104.6,23.2 104.7,23.2 104.7,23.2 104.7,23.2       104.7,23.2     "
             class="st1" /></g></g><g
         id="g281"><g
           id="g283"><polygon
             id="polygon285"
             points="103.7,23.2 103.7,23.2 104.7,23.2 104.7,23.2 103.7,23.2 103.7,23.2 103.7,23.2 103.7,23.2       103.7,23.2     "
             class="st1" /></g></g><g
         id="g287"><g
           id="g289"><polygon
             id="polygon291"
             points="103.7,22.8 103.7,22.7 103.7,22.8 103.7,22.9 103.7,23 103.7,23.2 103.7,23.2 103.7,23 103.7,22.9       103.7,22.8 103.7,22.8 103.7,22.7     "
             class="st1" /></g></g><g
         id="g293"><g
           id="g295"><polygon
             id="polygon297"
             points="102.2,23.2 102.2,23.2 102.3,23.3 102.4,23.3 102.5,23.3 102.7,23.3 102.8,23.2 102.9,23.2       103,23.2 103.1,23.2 103.2,23.1 103.3,23.1 103.4,23 103.5,23 103.5,22.9 103.6,22.9 103.7,22.8 103.7,22.8 103.7,22.7       103.6,22.8 103.6,22.8 103.5,22.9 103.4,22.9 103.4,23 103.3,23 103.2,23.1 103.1,23.1 103,23.1 102.9,23.2 102.8,23.2       102.7,23.2 102.5,23.2 102.4,23.2 102.3,23.2 102.2,23.2 102.2,23.2     "
             class="st1" /></g></g><g
         id="g299"><g
           id="g301"><polygon
             id="polygon303"
             points="101.3,22.1 101.3,22.1 101.3,22.2 101.3,22.2 101.3,22.3 101.3,22.4 101.4,22.5 101.4,22.6       101.4,22.7 101.5,22.8 101.5,22.9 101.6,22.9 101.7,23 101.7,23.1 101.8,23.1 102,23.2 102.1,23.2 102.2,23.2 102.2,23.2       102.1,23.2 102,23.1 101.9,23.1 101.8,23 101.7,23 101.6,22.9 101.6,22.8 101.5,22.7 101.5,22.7 101.4,22.6 101.4,22.5       101.4,22.4 101.4,22.3 101.4,22.2 101.3,22.2 101.3,22.1 101.3,22.1     "
             class="st1" /></g></g><g
         id="g305"><g
           id="g307"><polygon
             id="polygon309"
             points="102.7,20.6 102.7,20.6 102.5,20.6 102.4,20.7 102.3,20.7 102.2,20.8 102,20.8 101.9,20.9 101.8,21       101.7,21.1 101.6,21.2 101.5,21.3 101.5,21.4 101.4,21.5 101.4,21.6 101.3,21.8 101.3,21.9 101.3,22.1 101.3,22.1 101.4,21.9       101.4,21.8 101.4,21.7 101.5,21.5 101.5,21.4 101.6,21.3 101.7,21.2 101.8,21.1 101.9,21 102,20.9 102.1,20.9 102.2,20.8       102.3,20.7 102.4,20.7 102.6,20.7 102.7,20.6 102.7,20.6     "
             class="st1" /></g></g><g
         id="g311"><g
           id="g313"><polygon
             id="polygon315"
             points="103.5,20.5 103.5,20.5 103.4,20.5 103.4,20.5 103.3,20.5 103.3,20.5 103.2,20.5 103.1,20.5       103.1,20.6 103,20.6 102.9,20.6 102.9,20.6 102.8,20.6 102.8,20.6 102.7,20.6 102.7,20.6 102.7,20.6 102.7,20.6 102.7,20.6       102.7,20.6 102.7,20.6 102.7,20.6 102.8,20.6 102.8,20.6 102.9,20.6 102.9,20.6 103,20.6 103.1,20.6 103.1,20.6 103.2,20.6       103.3,20.6 103.3,20.6 103.4,20.6 103.4,20.6 103.5,20.6 103.5,20.6     "
             class="st1" /></g></g><g
         id="g317"><g
           id="g319"><polygon
             id="polygon321"
             points="104,20.6 104,20.5 104,20.5 104,20.5 103.9,20.5 103.8,20.5 103.7,20.5 103.7,20.5 103.6,20.5       103.5,20.5 103.5,20.6 103.6,20.6 103.7,20.6 103.7,20.6 103.8,20.6 103.9,20.6 104,20.6 104,20.6 104,20.6 104,20.6 104,20.6       104,20.6 104,20.6     "
             class="st1" /></g></g><g
         id="g323"><g
           id="g325"><polygon
             id="polygon327"
             points="104,20.3 104,20.3 104,20.4 104,20.5 104,20.5 104,20.6 104,20.6 104,20.5 104.1,20.5 104.1,20.4       104.1,20.3 104.1,20.3     "
             class="st1" /></g></g><g
         id="g329"><g
           id="g331"><polygon
             id="polygon333"
             points="103.6,19.9 103.6,19.9 103.7,19.9 103.7,20 103.8,20 103.9,20 103.9,20.1 104,20.2 104,20.2       104,20.3 104.1,20.3 104.1,20.2 104,20.1 104,20.1 103.9,20 103.8,20 103.8,19.9 103.7,19.9 103.6,19.9 103.6,19.9     "
             class="st1" /></g></g><g
         id="g335"><g
           id="g337"><polygon
             id="polygon339"
             points="101.9,20.1 102,20.1 102,20.1 102,20.1 102.1,20.1 102.2,20 102.3,20 102.4,20 102.5,20 102.6,20       102.7,20 102.9,20 103,19.9 103.1,19.9 103.2,19.9 103.3,19.9 103.5,19.9 103.6,19.9 103.6,19.9 103.5,19.9 103.3,19.9       103.2,19.9 103.1,19.9 103,19.9 102.9,19.9 102.7,19.9 102.6,19.9 102.5,19.9 102.4,20 102.3,20 102.2,20 102.1,20 102,20       102,20.1 101.9,20.1 102,20.1     "
             class="st1" /></g></g><g
         id="g341"><g
           id="g343"><polygon
             id="polygon345"
             points="102.2,19.2 102.2,19.2 101.9,20.1 102,20.1 102.2,19.2 102.2,19.2 102.2,19.2 102.2,19.2       102.2,19.2     "
             class="st1" /></g></g><g
         id="g347"><g
           id="g349"><polygon
             id="polygon351"
             points="103.9,19 103.9,19 103.8,19 103.7,19 103.5,19 103.4,19 103.3,19 103.2,19 103.1,19 103,19       102.9,19 102.8,19 102.7,19 102.6,19.1 102.5,19.1 102.4,19.1 102.3,19.1 102.2,19.2 102.2,19.2 102.3,19.2 102.4,19.2       102.5,19.1 102.6,19.1 102.7,19.1 102.8,19.1 102.9,19.1 103,19 103.1,19 103.2,19 103.3,19 103.4,19 103.5,19 103.7,19       103.8,19 103.9,19 103.9,19     "
             class="st1" /></g></g><g
         id="g353"><g
           id="g355"><polygon
             id="polygon357"
             points="105.2,20.3 105.2,20.3 105.3,20.1 105.3,20 105.2,19.9 105.2,19.7 105.1,19.6 105,19.5 105,19.4       104.9,19.3 104.7,19.3 104.6,19.2 104.5,19.1 104.4,19.1 104.3,19 104.1,19 104,19 103.9,19 103.9,19 104,19 104.1,19.1       104.3,19.1 104.4,19.1 104.5,19.2 104.6,19.2 104.7,19.3 104.8,19.4 104.9,19.4 105,19.5 105.1,19.6 105.1,19.8 105.2,19.9       105.2,20 105.2,20.1 105.2,20.3 105.2,20.3     "
             class="st1" /></g></g><g
         id="g359"><g
           id="g361"><polygon
             id="polygon363"
             points="104.8,22.3 104.8,22.3 105.2,20.3 105.2,20.3 104.8,22.3 104.8,22.3     "
             class="st1" /></g></g><g
         id="g365"><g
           id="g367"><polygon
             id="polygon369"
             points="103.9,21.3 103.9,21.3 103.9,21.3 103.8,21.3 103.8,21.3 103.7,21.3 103.7,21.3 103.6,21.3       103.6,21.3 103.5,21.3 103.5,21.3 103.4,21.3 103.3,21.3 103.3,21.3 103.2,21.3 103.2,21.3 103.1,21.3 103.1,21.3 103.1,21.3       103,21.4 103,21.4 103,21.4 102.9,21.4 102.9,21.4 102.8,21.5 102.8,21.5 102.7,21.6 102.7,21.6 102.6,21.6 102.6,21.7       102.6,21.8 102.5,21.8 102.5,21.9 102.5,22 102.5,22.1 102.6,22.2 102.6,22.3 102.7,22.3 102.7,22.3 102.8,22.3 102.9,22.3       103,22.3 103.1,22.3 103.2,22.3 103.3,22.3 103.4,22.2 103.4,22.2 103.5,22.2 103.6,22.1 103.6,22.1 103.7,22 103.7,22       103.7,21.9 103.8,21.9 103.8,21.8 103.8,21.8 103.8,21.7 103.8,21.6 103.9,21.5 103.9,21.4     "
             class="st6" /></g></g><g
         id="g371"><g
           id="g373"><polygon
             id="polygon375"
             points="111.8,22.7 111.8,22.6 111.8,22.5 111.9,22.4 112,22.3 112,22.2 112.1,22.2 112.2,22.1 112.3,22.1       112.5,22.1 112.6,22.2 112.6,22.2 112.7,22.3 112.8,22.4 112.8,22.5 112.9,22.6 112.9,22.7 112.8,22.7 112.8,22.6 112.7,22.5       112.7,22.4 112.7,22.4 112.6,22.3 112.5,22.3 112.4,22.2 112.3,22.2 112.3,22.2 112.2,22.3 112.1,22.3 112,22.4 112,22.4       112,22.5 111.9,22.6 111.9,22.7     "
             class="st1" /></g></g><g
         id="g377"><g
           id="g379"><polygon
             id="polygon381"
             points="112.2,22.7 112.2,22.4 112.4,22.4 112.4,22.4 112.5,22.4 112.5,22.4 112.5,22.5 112.5,22.5       112.5,22.5 112.6,22.5 112.6,22.6 112.6,22.6 112.5,22.6 112.5,22.6 112.5,22.7 112.4,22.7 112.4,22.7 112.4,22.6 112.4,22.6       112.5,22.6 112.5,22.6 112.5,22.6 112.5,22.6 112.5,22.6 112.5,22.5 112.5,22.5 112.5,22.5 112.4,22.5 112.4,22.5 112.4,22.5       112.4,22.5 112.4,22.5 112.3,22.5 112.3,22.7     "
             class="st1" /></g></g><g
         id="g383"><g
           id="g385"><polygon
             id="polygon387"
             points="111.8,22.7 111.8,22.7 111.8,22.8 111.8,22.9 111.9,23 112,23.1 112,23.1 112.1,23.2 112.2,23.2       112.3,23.2 112.5,23.2 112.6,23.2 112.6,23.1 112.7,23.1 112.8,23 112.8,22.9 112.9,22.8 112.9,22.7 112.9,22.7 112.8,22.7       112.8,22.7 112.8,22.8 112.7,22.9 112.7,22.9 112.7,23 112.6,23 112.5,23.1 112.4,23.1 112.3,23.1 112.3,23.1 112.2,23.1       112.1,23 112,23 112,22.9 112,22.9 111.9,22.8 111.9,22.7 111.9,22.7     "
             class="st1" /></g></g><g
         id="g389"><g
           id="g391"><polygon
             id="polygon393"
             points="112.2,22.7 112.2,22.9 112.3,22.9 112.3,22.7 112.3,22.7 112.5,22.9 112.5,22.9 112.4,22.7       112.5,22.7 112.5,22.7 112.5,22.7 112.5,22.7 112.5,22.7 112.4,22.7 112.3,22.7 112.3,22.7 112.3,22.7     "
             class="st1" /></g></g><g
         id="g395"><g
           id="g397"><polygon
             id="polygon399"
             points="112.3,23.3 112.2,23.3 112.1,23.3 112,23.2 111.9,23.1 111.8,23.1 111.8,23 111.7,22.8 111.7,22.7       111.7,22.6 111.7,22.4 111.8,22.3 111.9,22.2 112,22.1 112.1,22.1 112.2,22 112.3,22 112.5,22 112.6,22.1 112.7,22.1       112.8,22.2 112.9,22.3 112.9,22.4 113,22.5 113,22.7 113,22.8 113,22.9 112.9,23 112.8,23.1 112.7,23.2 112.6,23.3 112.5,23.3           "
             class="st1" /></g></g><g
         id="g401"><g
           id="g403"><polygon
             id="polygon405"
             points="105.1,23.2 106.2,23.2 106.2,23.2 106.6,21 106.6,20.9 106.6,20.8 106.6,20.7 106.7,20.7       106.7,20.6 106.8,20.5 106.8,20.4 106.9,20.3 106.9,20.3 107,20.2 107.1,20.2 107.2,20.1 107.3,20.1 107.4,20 107.6,20       107.7,20 107.8,20 107.8,20 107.8,20 107.8,20 108,19 107.9,19 107.8,19 107.7,19.1 107.6,19.1 107.5,19.1 107.4,19.2       107.3,19.2 107.3,19.2 107.2,19.3 107.1,19.3 107.1,19.4 107,19.5 107,19.5 106.9,19.6 106.8,19.7 106.8,19.8 106.9,19.1       105.8,19.1     "
             class="st1" /></g></g><g
         id="g407"><g
           id="g409"><path
             id="path411"
             d="M106.3,23.3H105l0.8-4.3h1.3l-0.1,0.4l0.2-0.2l0.3-0.1l0.2-0.1l0.2,0l0.3,0l-0.2,1.2l-0.3,0l-0.2,0.1      l-0.2,0.1l-0.1,0.1l-0.1,0.1l-0.1,0.2l-0.1,0.3L106.3,23.3z M105.2,23.1h0.9l0.4-2.4l0.1-0.2l0.1-0.2l0.1-0.2l0.2-0.1l0.2-0.1      l0.3-0.1l0.2,0l0.1-0.8l-0.2,0l-0.2,0.1l-0.2,0.1l-0.2,0.2l-0.2,0.3l-0.2-0.1l0.1-0.6h-0.9L105.2,23.1z"
             class="st1" /></g></g><g
         id="g413"><g
           id="g415"><polygon
             id="polygon417"
             points="94.9,23.2 96,23.2 96,23.2 96.4,21 96.4,20.9 96.4,20.8 96.4,20.7 96.5,20.7 96.5,20.6 96.5,20.5       96.6,20.5 96.6,20.4 96.7,20.3 96.8,20.3 96.8,20.2 96.9,20.2 97,20.1 97.2,20.1 97.3,20.1 97.4,20.1 97.5,20.1 97.5,20.1       97.5,20.1 97.5,20.1 97.5,20.1 97.5,20.1 97.6,20.1 97.6,20.1 97.6,20.1 97.6,20 97.6,20 97.6,19.9 97.6,19.8 97.7,19.7       97.7,19.6 97.7,19.5 97.8,19.4 97.8,19.3 97.8,19.2 97.9,19.2 97.9,19.1 97.9,19.1 98,19 98,19 98,19 97.9,19 97.9,19 97.9,19       97.9,19 97.8,19 97.8,19 97.8,19 97.7,19 97.6,19 97.5,19.1 97.4,19.1 97.3,19.1 97.2,19.1 97.1,19.2 97.1,19.2 97,19.3       96.9,19.3 96.9,19.4 96.8,19.5 96.8,19.5 96.7,19.6 96.6,19.7 96.6,19.8 96.7,19.1 95.6,19.1     "
             class="st1" /></g></g><g
         id="g419"><g
           id="g421"><path
             id="path423"
             d="M96.1,23.3h-1.3l0.8-4.3h1.3l-0.1,0.4l0.1-0.1l0.1-0.1l0.2-0.1l0.2-0.1l0.2,0l0.2,0l0.1,0h0l0.1,0h0.2      L98,19.2l-0.1,0.3l-0.2,0.7l-0.1,0l-0.1,0l-0.3,0L97,20.3l-0.2,0.1l-0.2,0.2l-0.1,0.1l-0.1,0.3l0,0.1L96.1,23.3z M95,23.1h0.9      l0.4-2.4l0.1-0.2l0.1-0.2l0.1-0.1l0.1-0.1l0.2-0.1l0.2-0.1l0.3,0l0,0l0.2-0.5l0.2-0.3l-0.3,0l-0.2,0l-0.2,0.1L97,19.5l-0.3,0.3      l-0.2-0.1l0.1-0.6h-0.9L95,23.1z"
             class="st1" /></g></g><g
         id="g425"><g
           id="g427"><polygon
             id="polygon429"
             points="111.8,27.2 111.8,27.2 111.8,27.1 111.9,27 112,27 112,26.9 112.1,26.8 112.2,26.8 112.3,26.8       112.5,26.8 112.6,26.8 112.6,26.9 112.7,27 112.8,27 112.8,27.1 112.9,27.2 112.9,27.2 112.8,27.2 112.7,27.2 112.7,27.1       112.7,27 112.6,27 112.5,26.9 112.4,26.9 112.3,26.9 112.3,26.9 112.2,26.9 112.1,27 112,27 112,27.1 112,27.2 111.9,27.2           "
             class="st6" /></g></g><g
         id="g431"><g
           id="g433"><polygon
             id="polygon435"
             points="112.2,27.2 112.2,27.1 112.4,27.1 112.4,27.1 112.5,27.1 112.5,27.1 112.5,27.1 112.5,27.1       112.5,27.2 112.6,27.2 112.6,27.2 112.5,27.2 112.5,27.2 112.5,27.2 112.5,27.2 112.5,27.2 112.4,27.2 112.4,27.2 112.4,27.2       112.4,27.2 112.4,27.2 112.3,27.2 112.3,27.2     "
             class="st6" /></g></g><g
         id="g437"><g
           id="g439"><polygon
             id="polygon441"
             points="111.8,27.3 111.8,27.2 111.9,27.2 111.9,27.2 111.9,27.3     "
             class="st6" /></g></g><g
         id="g443"><g
           id="g445"><polygon
             id="polygon447"
             points="112.2,27.3 112.2,27.2 112.3,27.2 112.3,27.3 112.3,27.3 112.4,27.3 112.4,27.3 112.4,27.3       112.5,27.3 112.5,27.3 112.5,27.3 112.5,27.2 112.5,27.2 112.6,27.2 112.6,27.2 112.6,27.3 112.5,27.3 112.5,27.3 112.5,27.3           "
             class="st6" /></g></g><g
         id="g449"><g
           id="g451"><polygon
             id="polygon453"
             points="112.8,27.3 112.8,27.2 112.8,27.2 112.9,27.2 112.9,27.3     "
             class="st6" /></g></g><g
         id="g455"><g
           id="g457"><polygon
             id="polygon459"
             points="111.8,27.3 111.8,27.3 111.8,27.4 111.8,27.5 111.9,27.6 112,27.7 112,27.8 112.1,27.8 112.2,27.9       112.3,27.9 112.5,27.9 112.6,27.8 112.6,27.8 112.7,27.7 112.8,27.6 112.8,27.5 112.9,27.4 112.9,27.3 112.9,27.3 112.8,27.3       112.8,27.3 112.8,27.4 112.7,27.5 112.7,27.6 112.7,27.6 112.6,27.7 112.5,27.7 112.4,27.8 112.3,27.8 112.3,27.8 112.2,27.7       112.1,27.7 112,27.6 112,27.6 112,27.5 111.9,27.4 111.9,27.3 111.9,27.3     "
             class="st6" /></g></g><g
         id="g461"><g
           id="g463"><polygon
             id="polygon465"
             points="112.2,27.3 112.2,27.5 112.3,27.5 112.3,27.3 112.3,27.3 112.5,27.5 112.5,27.5 112.4,27.3       112.5,27.3 112.5,27.3 112.5,27.3 112.5,27.3 112.5,27.3     "
             class="st6" /></g></g></g></g><g
     id="g467"><g
       id="g469"><g
         id="g471"><path
           id="path473"
           d="M254,35.8c0,2.2-1.8,4-4,4h-47.7c-2.2,0-4-1.8-4-4V5.5c0-2.2,1.8-4,4-4H250c2.2,0,4,1.8,4,4V35.8L254,35.8z"
           class="st1" /></g><g
         id="g475"><path
           id="path477"
           d="M250,40.3h-47.7c-2.5,0-4.5-2-4.5-4.5V5.5c0-2.5,2-4.5,4.5-4.5H250c2.5,0,4.5,2,4.5,4.5v30.3     C254.5,38.3,252.5,40.3,250,40.3z M202.3,2c-1.9,0-3.5,1.6-3.5,3.5v30.3c0,1.9,1.6,3.5,3.5,3.5H250c1.9,0,3.5-1.6,3.5-3.5V5.5     c0-1.9-1.6-3.5-3.5-3.5H202.3z"
           class="st8" /></g></g><g
       id="g479"><g
         id="g481"><g
           id="g483"><path
             id="path485"
             d="M215.3,27.2c-1.4,0-2.4-0.6-3-1.4l1.3-1.4c0.5,0.6,1,0.9,1.7,0.9c0.8,0,1.2-0.5,1.2-1.5V18h1.8V7.3h-5.3      c-2.5,0-4.4,1.6-4.4,4.3V34h5.5c1.9,0,4.2-1.8,4.2-4.2v-4.3C217.8,26.6,216.7,27.2,215.3,27.2z"
             class="st9" /></g></g><g
         id="g487"><g
           id="g489"><g
             id="g491"><path
               id="path493"
               d="M226.3,22.5L226.3,22.5c0,1.6,1.1,2.9,2.6,2.9c0.9,0,1.5-0.3,2.1-0.8v-4.1c-0.6-0.5-1.3-0.8-2.1-0.8       C227.4,19.6,226.3,20.9,226.3,22.5z"
               class="st10" /></g></g><g
           id="g495"><g
             id="g497"><path
               id="path499"
               d="M228.9,27.2c-2.7,0-4.7-2.1-4.7-4.7v0c0-2.6,1.9-4.7,4.7-4.7c0.8,0,1.5,0.1,2,0.4V7.3h-5.3       c-2.5,0-4.4,1.6-4.4,4.3V34h5.5c1.9,0,4.2-1.8,4.2-4.2v-3C230.4,27.1,229.7,27.2,228.9,27.2z"
               class="st10" /></g></g></g><g
         id="g501"><g
           id="g503"><g
             id="g505"><path
               id="path507"
               d="M243.8,22.5V22c-0.1,0.1-0.2,0.2-0.4,0.3C243.5,22.3,243.7,22.4,243.8,22.5z"
               class="st11" /></g></g><g
           id="g509"><g
             id="g511"><path
               id="path513"
               d="M241.7,27h-4.3V18h4.2c0.9,0,1.7,0.2,2.2,0.6V7.3h-5.3c-2.5,0-4.4,1.6-4.4,4.3V34h5.5       c1.9,0,4.2-1.8,4.2-4.2v-3.1C243.2,26.9,242.5,27,241.7,27z"
               class="st11" /></g></g><g
           id="g515"><g
             id="g517"><path
               id="path519"
               d="M242.6,20.7L242.6,20.7c0-0.6-0.5-1-1.3-1h-2v1.9h1.8C242,21.6,242.6,21.3,242.6,20.7z"
               class="st11" /></g></g><g
           id="g521"><g
             id="g523"><path
               id="path525"
               d="M239.3,25.3h2.4c0.9,0,1.4-0.3,1.4-1v0c0-0.6-0.5-1-1.5-1h-2.3L239.3,25.3L239.3,25.3z"
               class="st11" /></g></g></g></g></g><g
     id="g527"><path
       id="path529"
       d="M316,1.8h-47.7c-2.2,0-4,1.8-4,4v27.1v1.1v2.1c0,2.2,1.8,4,4,4H316c2.2,0,4-1.8,4-4v-2.1v-1.1V5.8   C320,3.6,318.2,1.8,316,1.8z"
       class="st12" /><rect
       id="rect531"
       height="21"
       width="45.3"
       class="st1"
       y="6.6"
       x="269.6" /><g
       id="g533"><g
         id="g535"><g
           id="g537"><polygon
             id="polygon539"
             points="287,22.2 288.8,11.6 291.6,11.6 289.8,22.2     "
             class="st12" /></g></g><g
         id="g541"><g
           id="g543"><path
             id="path545"
             d="M300.3,11.9c-0.6-0.2-1.5-0.4-2.6-0.4c-2.9,0-4.9,1.4-4.9,3.5c0,1.5,1.4,2.4,2.5,2.9      c1.1,0.5,1.5,0.9,1.5,1.3c0,0.7-0.9,1-1.7,1c-1.2,0-1.8-0.2-2.7-0.6l-0.4-0.2l-0.4,2.4c0.7,0.3,1.9,0.6,3.2,0.6c3,0,5-1.4,5-3.6      c0-1.2-0.8-2.1-2.4-2.9c-1-0.5-1.6-0.8-1.6-1.3c0-0.4,0.5-0.9,1.6-0.9c0.9,0,1.6,0.2,2.2,0.4l0.3,0.1L300.3,11.9"
             class="st12" /></g></g><g
         id="g547"><g
           id="g549"><path
             id="path551"
             d="M307.7,11.7h-2.2c-0.7,0-1.2,0.2-1.5,0.9l-4.3,9.7h3c0,0,0.5-1.3,0.6-1.6c0.3,0,3.3,0,3.7,0      c0.1,0.4,0.4,1.6,0.4,1.6h2.7L307.7,11.7 M304.1,18.5c0.2-0.6,1.1-3,1.1-3c0,0,0.2-0.6,0.4-1l0.2,0.9c0,0,0.6,2.5,0.7,3.1      L304.1,18.5L304.1,18.5z"
             class="st12" /></g></g><g
         id="g553"><g
           id="g555"><path
             id="path557"
             d="M284.5,11.7l-2.8,7.2l-0.3-1.5c-0.5-1.7-2.2-3.5-4-4.4l2.6,9.3l3.1,0l4.5-10.6L284.5,11.7"
             class="st12" /></g></g><g
         id="g559"><g
           id="g561"><path
             id="path563"
             d="M279.1,11.6h-4.6l0,0.2c3.6,0.9,6,3,7,5.5l-1-4.9C280.2,11.9,279.7,11.7,279.1,11.6"
             class="st4" /></g></g></g><g
       id="g565"><path
         id="path567"
         d="M294,31h-1.2l-0.2,1.2h1.1l-0.1,0.6h-1.1l-0.2,1.3h1.3l-0.1,0.6h-1.9l0.7-4.2h1.8L294,31z"
         class="st1" /><path
         id="path569"
         d="M296.1,34.7h-1.9l0.7-4.2h0.7L295,34h1.2L296.1,34.7z"
         class="st1" /><path
         id="path571"
         d="M299.2,31H298l-0.2,1.2h1.1l-0.1,0.6h-1.1l-0.2,1.3h1.3l-0.1,0.6h-1.9l0.7-4.2h1.8L299.2,31z"
         class="st1" /><path
         id="path573"
         d="M302,31.3c-0.1-0.1-0.1-0.2-0.2-0.2c-0.1-0.1-0.2-0.1-0.3-0.1c-0.2,0-0.4,0.1-0.5,0.2    c-0.1,0.1-0.3,0.3-0.4,0.5c-0.1,0.2-0.2,0.4-0.2,0.7c-0.1,0.3-0.1,0.5-0.1,0.7c0,0.3,0.1,0.6,0.2,0.7c0.1,0.2,0.3,0.3,0.5,0.3    c0.2,0,0.3,0,0.4-0.1c0.1-0.1,0.2-0.2,0.3-0.2l0.3,0.5c-0.1,0.2-0.3,0.3-0.5,0.4c-0.2,0.1-0.4,0.1-0.7,0.1c-0.2,0-0.4,0-0.5-0.1    c-0.2-0.1-0.3-0.2-0.4-0.3c-0.1-0.1-0.2-0.3-0.2-0.5c-0.1-0.2-0.1-0.4-0.1-0.6c0-0.4,0-0.7,0.1-1c0.1-0.3,0.2-0.6,0.4-0.9    c0.2-0.3,0.4-0.5,0.6-0.6c0.2-0.2,0.5-0.2,0.8-0.2c0.2,0,0.4,0,0.6,0.1s0.3,0.2,0.4,0.4L302,31.3z"
         class="st1" /><path
         id="path575"
         d="M304.9,31h-0.8l-0.6,3.7h-0.7l0.6-3.7h-0.8l0.1-0.6h2.3L304.9,31z"
         class="st1" /><path
         id="path577"
         d="M307.7,31.4c0,0.3-0.1,0.6-0.2,0.8c-0.2,0.2-0.4,0.4-0.6,0.4l0.5,1.9h-0.7l-0.4-1.8h-0.4l-0.3,1.8h-0.7    l0.7-4.2h1.1c0.4,0,0.6,0.1,0.8,0.3C307.6,30.8,307.7,31.1,307.7,31.4z M307,31.5c0-0.2-0.1-0.3-0.2-0.4c-0.1-0.1-0.2-0.1-0.4-0.1    h-0.4l-0.2,1.3h0.4c0.2,0,0.4-0.1,0.5-0.2C307,32,307,31.8,307,31.5z"
         class="st1" /><path
         id="path579"
         d="M311.2,31.9c0,0.3,0,0.7-0.1,1c-0.1,0.3-0.2,0.6-0.4,0.9c-0.2,0.3-0.4,0.5-0.6,0.7c-0.2,0.2-0.5,0.3-0.8,0.3    c-0.2,0-0.4,0-0.5-0.1c-0.2-0.1-0.3-0.2-0.4-0.3c-0.1-0.1-0.2-0.3-0.2-0.5c-0.1-0.2-0.1-0.4-0.1-0.6c0-0.3,0-0.7,0.1-1    s0.2-0.6,0.4-0.9c0.2-0.3,0.4-0.5,0.6-0.7s0.5-0.3,0.8-0.3c0.2,0,0.4,0,0.5,0.1c0.2,0.1,0.3,0.2,0.4,0.3c0.1,0.1,0.2,0.3,0.2,0.5    C311.2,31.5,311.2,31.7,311.2,31.9z M310.5,32c0-0.1,0-0.3,0-0.4c0-0.1,0-0.2-0.1-0.3c0-0.1-0.1-0.2-0.2-0.2    c-0.1-0.1-0.2-0.1-0.3-0.1c-0.2,0-0.3,0.1-0.5,0.2c-0.1,0.1-0.3,0.3-0.4,0.6c-0.1,0.2-0.2,0.5-0.2,0.7c-0.1,0.3-0.1,0.5-0.1,0.7    c0,0.1,0,0.3,0,0.4c0,0.1,0.1,0.2,0.1,0.3c0,0.1,0.1,0.2,0.2,0.2c0.1,0.1,0.2,0.1,0.3,0.1c0.2,0,0.3-0.1,0.5-0.2    c0.1-0.1,0.3-0.3,0.4-0.5c0.1-0.2,0.2-0.4,0.2-0.7C310.5,32.5,310.5,32.2,310.5,32z"
         class="st1" /><path
         id="path581"
         d="M314.2,34.7h-0.8l-0.7-3h0l-0.5,3h-0.6l0.7-4.2h0.8l0.7,3.1h0l0.5-3.1h0.6L314.2,34.7z"
         class="st1" /></g></g></svg>